<svg width="99" height="26" viewBox="0 0 99 26" fill="none" xmlns="http://www.w3.org/2000/svg">
<g clip-path="url(#clip0_70_92)">
<g clip-path="url(#clip1_70_92)">
<g clip-path="url(#clip2_70_92)">
<path d="M58.102 14.203C57.5617 13.6522 57.2969 12.9848 57.2969 12.1798C57.2969 11.3747 57.5617 10.7073 58.102 10.1565C58.6527 9.60565 59.3308 9.34082 60.1359 9.34082C61.0786 9.34082 61.926 9.77515 62.4028 10.4955L61.2906 11.3217C61.0574 10.9404 60.6232 10.7073 60.1253 10.7073C59.2989 10.7073 58.6846 11.3217 58.6846 12.1798C58.6846 12.6035 58.8223 12.953 59.0978 13.2285C59.3626 13.4933 59.7121 13.6416 60.1253 13.6416C60.6444 13.6416 61.0786 13.4085 61.3116 13.0272L62.4241 13.8535C61.9262 14.5632 61.0892 15.0187 60.1465 15.0187C59.3202 15.0187 58.6527 14.7539 58.102 14.203Z" fill="white"/>
<path d="M64.2663 12.7411C64.4465 13.4085 64.9444 13.7368 65.7599 13.7368C66.279 13.7368 66.6816 13.5568 66.9464 13.2072L68.0481 13.8428C67.529 14.5949 66.7556 14.9762 65.7493 14.9762C64.8701 14.9762 64.1711 14.7114 63.652 14.1818C63.1223 13.6521 62.8574 12.9847 62.8574 12.1903C62.8574 11.3958 63.1223 10.7284 63.6414 10.2094C64.1604 9.66912 64.8383 9.4043 65.6434 9.4043C66.4167 9.4043 67.0629 9.66912 67.5502 10.2094C68.0587 10.7496 68.3129 11.4064 68.3129 12.1903C68.3129 12.3703 68.2917 12.5504 68.2598 12.7517H64.2663V12.7411ZM66.9358 11.6818C66.7769 10.9615 66.2472 10.6119 65.6222 10.6119C64.8913 10.6119 64.3935 11.0038 64.2345 11.6818H66.9358Z" fill="white"/>
<path d="M35.3249 12.6566C35.3249 13.2816 35.1022 13.8007 34.6574 14.2032C34.2124 14.6058 33.6617 14.807 33.0155 14.807H29.8906V7.41309H32.8037C33.4393 7.41309 33.9688 7.61435 34.4032 8.0063C34.8374 8.39824 35.06 8.8961 35.06 9.4999C35.06 10.1143 34.827 10.6122 34.3608 10.9829C35.007 11.3431 35.3249 11.9151 35.3249 12.6566ZM31.3524 8.77957V10.4109H32.8143C33.2698 10.4109 33.6087 10.0613 33.6087 9.59525C33.6087 9.12916 33.2804 8.77957 32.8143 8.77957H31.3524ZM33.0261 13.4405C33.524 13.4405 33.8841 13.0698 33.8841 12.5613C33.8841 12.0634 33.524 11.6927 33.0261 11.6927H31.3524V13.4405H33.0261Z" fill="white"/>
<path d="M40.2522 9.52052H41.6189L41.6293 14.8064H40.2628V14.1814C39.8499 14.7005 39.2777 14.9547 38.5469 14.9547C37.8372 14.9547 37.2332 14.6899 36.7248 14.1603C36.2269 13.62 35.9727 12.9632 35.9727 12.1793C35.9727 11.3955 36.2269 10.7387 36.7141 10.1985C37.2226 9.65823 37.816 9.38281 38.5256 9.38281C39.2671 9.38281 39.8393 9.63703 40.2522 10.1455V9.52052ZM38.7905 13.6518C39.2143 13.6518 39.5638 13.5141 39.8393 13.2387C40.1251 12.9526 40.2628 12.5925 40.2628 12.1582C40.2628 11.7239 40.1251 11.3637 39.8393 11.0883C39.5638 10.8023 39.2143 10.6646 38.7905 10.6646C38.3667 10.6646 38.0172 10.8023 37.7417 11.0883C37.4665 11.3637 37.3287 11.7239 37.3287 12.1582C37.3287 12.5925 37.4665 12.9526 37.7417 13.2387C38.0172 13.5141 38.3667 13.6518 38.7905 13.6518Z" fill="white"/>
<path d="M42.6367 14.8065V7.09473H44.0032V14.8065H42.6367Z" fill="white"/>
<path d="M49.1183 9.52052H50.4848V14.8064H49.1183V14.1814C48.7051 14.7005 48.1332 14.9547 47.3915 14.9547C46.6818 14.9547 46.0781 14.6899 45.5802 14.1497C45.0824 13.6094 44.8281 12.9421 44.8281 12.1688C44.8281 11.3849 45.0824 10.7281 45.5802 10.1985C46.0887 9.65823 46.6925 9.38281 47.3915 9.38281C48.1332 9.38281 48.7051 9.63703 49.1183 10.1561V9.52052ZM47.6457 13.6518C48.0695 13.6518 48.419 13.5141 48.6945 13.2387C48.9806 12.9526 49.1183 12.5925 49.1183 12.1582C49.1183 11.7239 48.9806 11.3637 48.6945 11.0883C48.419 10.8023 48.0695 10.6646 47.6457 10.6646C47.2222 10.6646 46.8726 10.8023 46.5972 11.0883C46.3217 11.3637 46.184 11.7239 46.184 12.1582C46.184 12.5925 46.3217 12.9526 46.5972 13.2387C46.8726 13.5141 47.2222 13.6518 47.6457 13.6518Z" fill="white"/>
<path d="M55.8341 9.95469C56.2154 10.3466 56.406 10.8763 56.406 11.5648V14.8063H55.0395V11.7343C55.0395 11.0246 54.6263 10.6432 53.9907 10.6432C53.2811 10.6432 52.8257 11.0776 52.8257 11.9568V14.8063H51.459V9.52037H52.8257V10.1136C53.154 9.61572 53.6837 9.37207 54.4039 9.37207C54.9865 9.37207 55.4633 9.56275 55.8341 9.95469Z" fill="white"/>
<path d="M12.6281 25.4485C19.5031 25.4485 25.0765 19.8752 25.0765 13.0001C25.0765 6.12508 19.5031 0.551758 12.6281 0.551758C5.75302 0.551758 0.179688 6.12508 0.179688 13.0001C0.179688 19.8752 5.75302 25.4485 12.6281 25.4485Z" fill="#FFCD00"/>
<path d="M3.86719 21.862C6.12119 24.1159 9.19487 25.4991 12.6271 25.4991C16.0594 25.4991 19.1331 24.1159 21.3871 21.9132L12.5759 13.0508L3.86719 21.862Z" fill="white"/>
<path d="M21.3871 4.13717C19.1331 1.88315 16.0594 0.5 12.6271 0.5C9.19487 0.5 6.12119 1.88315 3.86719 4.08594L12.6784 12.8971L21.3871 4.13717Z" fill="white"/>
<path d="M12.6274 22.6815C17.9746 22.6815 22.3094 18.3467 22.3094 12.9994C22.3094 7.65219 17.9746 3.31738 12.6274 3.31738C7.28012 3.31738 2.94531 7.65219 2.94531 12.9994C2.94531 18.3467 7.28012 22.6815 12.6274 22.6815Z" fill="#FFCD00"/>
<path d="M15.1384 15.5612C14.5236 16.2271 13.6528 16.5857 12.6282 16.5857C11.6036 16.5857 10.784 16.2271 10.118 15.5612C9.45209 14.8952 9.09349 14.0243 9.09349 12.9997C9.09349 10.8994 10.5791 9.4138 12.6282 9.4138C13.6528 9.4138 14.5749 9.82363 15.1896 10.5408L17.5973 8.13312C16.3678 6.8524 14.6261 6.08398 12.6794 6.08398C10.7328 6.08398 9.04227 6.74995 7.71033 8.08187C6.37842 9.4138 5.76367 11.0531 5.76367 13.051C5.76367 14.9976 6.42964 16.6369 7.71033 18.0201C9.04227 19.352 10.6816 20.018 12.7307 20.018C14.6261 20.018 16.3678 19.2495 17.5973 18.0201L15.1384 15.5612Z" fill="white"/>
<path d="M32.6075 19.7102C32.9148 19.9664 33.0685 20.325 33.0685 20.786C33.0685 21.2983 32.9148 21.6569 32.5563 21.913C32.249 22.1692 31.7879 22.2716 31.2242 22.2716H29.6875V17.6611H32.5051L32.4539 18.4295H30.7634V19.3516H31.2757C31.8391 19.3516 32.3002 19.4541 32.6075 19.7102ZM31.8391 21.3495C31.9929 21.2471 32.044 21.0422 32.044 20.7348C32.044 20.4787 31.9929 20.2738 31.8391 20.1713C31.6853 20.0688 31.4804 19.9664 31.1731 19.9664H30.712V21.5032H31.1731C31.4804 21.5544 31.6853 21.5032 31.8391 21.3495Z" fill="white"/>
<path d="M36.4492 19.1471C36.7568 19.4544 36.9103 19.9155 36.9103 20.5302C36.9103 20.8888 36.8591 21.2474 36.7054 21.5035C36.5518 21.8109 36.3981 22.0158 36.1419 22.1695C35.8858 22.3232 35.5785 22.4256 35.2198 22.4256C34.7076 22.4256 34.2977 22.272 33.9904 21.9134C33.6831 21.606 33.5293 21.1449 33.5293 20.5302C33.5293 20.1716 33.5805 19.813 33.7342 19.5569C33.888 19.2495 34.0415 19.0446 34.2977 18.8909C34.5538 18.7372 34.8613 18.6348 35.2198 18.6348C35.7321 18.6348 36.1419 18.7885 36.4492 19.1471ZM34.6564 19.6081C34.5538 19.813 34.5026 20.0692 34.5026 20.479C34.5026 20.8888 34.5538 21.1962 34.6564 21.3498C34.7587 21.5548 34.9637 21.6572 35.1686 21.6572C35.3736 21.6572 35.5785 21.5548 35.6809 21.3498C35.7832 21.1449 35.8346 20.8888 35.8346 20.479C35.8346 20.0692 35.7832 19.7618 35.6809 19.6081C35.5785 19.4032 35.3736 19.3007 35.1686 19.3007C34.9637 19.352 34.7587 19.4544 34.6564 19.6081Z" fill="white"/>
<path d="M40.446 18.7368V22.2715H39.4727V19.454H38.7043L38.6017 20.3248C38.5505 20.8371 38.4994 21.1957 38.4482 21.4518C38.3968 21.708 38.2944 21.9129 38.1407 22.0153C37.9871 22.169 37.731 22.2715 37.4235 22.3227L37.2188 21.6055C37.3723 21.5543 37.4749 21.4518 37.526 21.4006C37.5772 21.2982 37.6284 21.1957 37.6796 21.042C37.731 20.8883 37.731 20.581 37.7822 20.2224L37.8845 18.6855H40.446V18.7368Z" fill="white"/>
<path d="M43.8261 20.1712C44.0822 20.3761 44.236 20.6835 44.236 21.0933C44.236 21.5032 44.0822 21.8105 43.8261 22.0155C43.5699 22.2204 43.2112 22.3228 42.7502 22.3228H41.3672V18.7881H42.3405V19.9151H42.6478C43.1601 19.8639 43.5699 19.9663 43.8261 20.1712ZM43.2626 21.0421C43.2626 20.8372 43.2112 20.6835 43.1089 20.6323C43.0065 20.5298 42.8528 20.4786 42.5966 20.4786H42.2893V21.6569H42.6478C43.0577 21.6569 43.2626 21.4519 43.2626 21.0421Z" fill="white"/>
<path d="M49.1528 18.7373V22.272H44.8496V18.7373H45.7717V21.5548H46.5913V18.7373H47.4111V21.5548H48.2306V18.7373H49.1528Z" fill="white"/>
<path d="M53.0476 20.7863H50.8448C50.896 21.0936 50.9472 21.3498 51.1009 21.4522C51.2547 21.6059 51.4596 21.6571 51.6644 21.6571C51.8181 21.6571 51.9719 21.6571 52.0742 21.6059C52.228 21.5547 52.3304 21.5035 52.4841 21.3498L52.894 21.862C52.4841 22.1694 52.0743 22.3231 51.562 22.3231C50.9986 22.3231 50.5887 22.1694 50.2814 21.8108C49.9738 21.4522 49.8203 21.0424 49.8203 20.4277C49.8203 20.0691 49.8715 19.7617 50.0253 19.4543C50.1276 19.147 50.3326 18.942 50.5887 18.7884C50.8448 18.6347 51.1009 18.5322 51.4596 18.5322C51.9719 18.5322 52.3304 18.6859 52.6377 18.9933C52.894 19.3006 53.0476 19.7617 53.0476 20.3252C53.0987 20.4789 53.0987 20.5813 53.0476 20.7863ZM52.1254 20.1715C52.1254 19.608 51.9205 19.3006 51.5108 19.3006C51.3059 19.3006 51.1521 19.3519 51.0498 19.5056C50.9472 19.6592 50.896 19.8642 50.8448 20.2228L52.1254 20.1715Z" fill="white"/>
<path d="M54.4304 21.4012C54.5327 21.5036 54.5841 21.6573 54.5841 21.811C54.5841 21.9135 54.5841 22.0159 54.5327 22.0672C54.4815 22.1696 54.4303 22.2721 54.3792 22.4258L53.9693 23.3991H53.457L53.7132 22.2208C53.662 22.1696 53.5594 22.1184 53.5082 22.0159C53.457 21.9135 53.457 21.8622 53.457 21.7598C53.457 21.6061 53.5082 21.4524 53.6108 21.35C53.7132 21.2475 53.8669 21.1963 54.0205 21.1963C54.2254 21.2475 54.328 21.2987 54.4304 21.4012Z" fill="white"/>
<path d="M59.7059 18.7372V22.272H58.7326V20.8888C58.5788 20.9912 58.4253 21.0937 58.2715 21.1449C58.118 21.1962 57.913 21.2474 57.7081 21.2474C57.3494 21.2474 57.0932 21.1449 56.9397 20.94C56.7859 20.7351 56.6836 20.479 56.6836 20.1204V18.686H57.6569V20.0179C57.6569 20.1716 57.7081 20.3253 57.7593 20.3765C57.8104 20.4277 57.913 20.479 58.0666 20.479C58.1692 20.479 58.3227 20.479 58.4253 20.4277C58.5276 20.3765 58.6302 20.3253 58.7326 20.2228V18.6348H59.7059V18.7372Z" fill="white"/>
<path d="M63.5983 20.7863H61.3956C61.4468 21.0936 61.4982 21.3498 61.6517 21.4522C61.8055 21.6059 62.0104 21.6571 62.2154 21.6571C62.3689 21.6571 62.5227 21.6571 62.625 21.6059C62.7788 21.5547 62.8812 21.5035 63.0349 21.3498L63.4448 21.862C63.0349 22.1694 62.625 22.3231 62.1128 22.3231C61.5494 22.3231 61.1395 22.1694 60.8322 21.8108C60.5249 21.4522 60.3711 21.0424 60.3711 20.4277C60.3711 20.0691 60.4223 19.7617 60.576 19.4543C60.6784 19.147 60.8833 18.942 61.1395 18.7884C61.3956 18.6347 61.6517 18.5322 62.0104 18.5322C62.5227 18.5322 62.8812 18.6859 63.1887 18.9933C63.4448 19.3006 63.5983 19.7617 63.5983 20.3252C63.6498 20.4789 63.5983 20.5813 63.5983 20.7863ZM62.6762 20.1715C62.6762 19.608 62.4715 19.3006 62.0616 19.3006C61.8567 19.3006 61.7029 19.3519 61.6005 19.5056C61.4982 19.6592 61.4468 19.8642 61.3956 20.2228L62.6762 20.1715Z" fill="white"/>
<path d="M68.1091 22.2716H67.187L67.0846 20.8884C67.0846 20.6835 67.0846 20.5298 67.0846 20.3249C67.0846 20.2225 67.0846 19.9663 67.1358 19.5565L66.521 21.913H65.7014L65.0866 19.6077C65.0866 19.8639 65.1378 20.0688 65.1378 20.3761C65.1378 20.5298 65.1378 20.6835 65.1378 20.9397L65.0354 22.3228H64.1133L64.4206 18.7881H65.5477L66.0599 21.1446L66.6236 18.7881H67.7504L68.1091 22.2716Z" fill="white"/>
<path d="M72.4631 22.272V19.4545H71.3874V22.272H70.4141V18.7373H73.3852V22.272H72.4631Z" fill="white"/>
<path d="M77.2269 18.7368V22.2715H76.2535V19.454H75.4852L75.4338 20.3248C75.3826 20.8371 75.3314 21.1957 75.2802 21.4518C75.229 21.708 75.1265 21.9129 74.9727 22.0153C74.8192 22.169 74.563 22.2715 74.2555 22.3227L74.0508 21.6055C74.2043 21.5543 74.3069 21.4518 74.3581 21.4006C74.4093 21.2982 74.4604 21.1957 74.5119 21.042C74.563 20.8883 74.563 20.581 74.6142 20.2224L74.7166 18.6855H77.2269V18.7368Z" fill="white"/>
<path d="M80.9657 21.6061C81.0171 21.6573 81.0683 21.7085 81.1706 21.7598L80.9657 22.3745C80.7607 22.3745 80.6072 22.3232 80.4534 22.2208C80.2999 22.1183 80.1973 22.0159 80.1461 21.8622C79.89 22.2208 79.5827 22.3745 79.0702 22.3745C78.7117 22.3745 78.4556 22.272 78.2507 22.0671C78.0457 21.8622 77.9434 21.6061 77.9434 21.2987C77.9434 20.8889 78.0969 20.6327 78.353 20.4278C78.6094 20.2229 79.019 20.1205 79.5827 20.1205H79.9923V19.9668C79.9923 19.7619 79.9412 19.6082 79.8388 19.5057C79.7362 19.4033 79.5827 19.4033 79.3263 19.4033C79.0702 19.4033 78.7629 19.4545 78.4044 19.6082L78.1995 18.9935C78.6606 18.8398 79.0702 18.7373 79.5313 18.7373C79.9923 18.7373 80.3511 18.8398 80.6072 19.0447C80.8121 19.2496 80.9657 19.5569 80.9657 19.9668V21.4012C80.8633 21.4524 80.9145 21.5548 80.9657 21.6061ZM79.9412 21.2987V20.6327H79.6339C79.1216 20.6327 78.8655 20.8377 78.8655 21.1962C78.8655 21.3499 78.9167 21.4524 78.9679 21.5548C79.0702 21.6573 79.1728 21.7085 79.3263 21.7085C79.5827 21.7085 79.7874 21.5548 79.9412 21.2987Z" fill="white"/>
<path d="M84.3987 18.7373L84.2961 19.4545H83.2717V22.272H82.2983V19.4545H81.2227V18.7373H84.3987Z" fill="white"/>
<path d="M87.6257 20.7863H85.4229C85.4741 21.0936 85.5253 21.3498 85.6791 21.4522C85.8328 21.6059 86.0378 21.6571 86.2425 21.6571C86.3962 21.6571 86.55 21.6571 86.6524 21.6059C86.8061 21.5547 86.9085 21.5035 87.0623 21.3498L87.4722 21.862C87.0623 22.1694 86.6524 22.3231 86.1401 22.3231C85.5767 22.3231 85.1668 22.1694 84.8595 21.8108C84.552 21.4522 84.3984 21.0424 84.3984 20.4277C84.3984 20.0691 84.4496 19.7617 84.6034 19.4543C84.7057 19.147 84.9107 18.942 85.1668 18.7884C85.4229 18.6347 85.6791 18.5322 86.0378 18.5322C86.55 18.5322 86.9085 18.6859 87.2158 18.9933C87.4722 19.3006 87.6257 19.7617 87.6257 20.3252C87.6769 20.4789 87.6257 20.5813 87.6257 20.7863ZM86.7035 20.1715C86.7035 19.608 86.4986 19.3006 86.0889 19.3006C85.884 19.3006 85.7302 19.3519 85.6279 19.5056C85.5253 19.6592 85.4741 19.8642 85.4229 20.2228L86.7035 20.1715Z" fill="white"/>
<path d="M92.6474 18.7373L91.8279 20.3766L92.7498 22.272H91.7765L91.0593 20.7352H90.7008V22.272H89.8813V20.7352H89.5225L88.8053 22.272H87.832L88.7542 20.3766L87.9344 18.7373H88.8565L89.5225 20.1717H89.8813V18.7373H90.7008V20.1717H91.0593L91.7253 18.7373H92.6474Z" fill="white"/>
<path d="M96.284 22.272H95.3619V20.9401C95.3619 20.684 95.3619 20.4278 95.4133 20.2229C95.4645 20.018 95.4645 19.8131 95.5157 19.6594L94.235 22.272H93.2617V18.7373H94.1836V20.1205C94.1836 20.3766 94.1836 20.5815 94.1324 20.8377C94.1324 21.0938 94.0813 21.2475 94.0301 21.4012L95.2595 18.7885H96.284V22.272Z" fill="white"/>
<path d="M97.9733 21.4008C98.0759 21.5032 98.1271 21.6569 98.1271 21.8106C98.1271 21.9643 98.0759 22.118 97.9733 22.2204C97.871 22.3229 97.7172 22.3741 97.5637 22.3741C97.4099 22.3741 97.2561 22.3229 97.1538 22.2204C97.0512 22.118 97 21.9643 97 21.8106C97 21.6569 97.0512 21.5032 97.1538 21.4008C97.2561 21.2983 97.4099 21.2471 97.5637 21.2471C97.7172 21.2471 97.871 21.2983 97.9733 21.4008ZM98.0759 17.6611L97.9733 20.6324H97.205L97.1026 17.6611H98.0759Z" fill="white"/>
</g>
</g>
</g>
<defs>
<clipPath id="clip0_70_92">
<rect width="98.11" height="25" fill="white" transform="translate(0.179688 0.5)"/>
</clipPath>
<clipPath id="clip1_70_92">
<rect width="98.11" height="25" fill="white" transform="translate(0.179688 0.5)"/>
</clipPath>
<clipPath id="clip2_70_92">
<rect width="98.11" height="24.9992" fill="white" transform="translate(0.179688 0.5)"/>
</clipPath>
</defs>
</svg>
