<svg width="76" height="26" viewBox="0 0 76 26" fill="none" xmlns="http://www.w3.org/2000/svg">
<g clip-path="url(#clip0_70_126)">
<g clip-path="url(#clip1_70_126)">
<g clip-path="url(#clip2_70_126)">
<path d="M25.2734 12.6891V4.98047H29.9981V5.54729C29.9981 6.1141 29.5171 6.59589 28.9513 6.59589H27.1689V8.21133H29.5171V8.74976C29.5171 9.34495 29.0361 9.82676 28.442 9.82676H27.1689V12.6891H25.2734Z" fill="white"/>
<path d="M32.9102 8.46639H33.7307C34.0418 8.46639 34.2682 8.38139 34.4379 8.21133C34.6077 8.04126 34.6925 7.81458 34.6925 7.50283C34.6925 7.0777 34.5511 6.79426 34.2398 6.68092C34.0702 6.59589 33.8438 6.56756 33.5326 6.56756H32.9102V8.46639ZM31.043 12.6891V4.98047H33.7307C34.4096 4.98047 34.9188 5.03715 35.2301 5.15052C35.6827 5.32056 36.0222 5.60397 36.2768 5.9724C36.5315 6.36917 36.6446 6.82264 36.6446 7.38945C36.6446 7.81457 36.5315 8.23964 36.3334 8.63645C36.1354 9.0332 35.8525 9.31664 35.4847 9.51501V9.54333C35.5695 9.62833 35.6544 9.79839 35.7676 9.99676L37.267 12.6891H35.1735L33.8155 10.0818H32.9385V12.6891H31.043Z" fill="white"/>
<path d="M38.1172 12.6891V4.98047H42.9267V6.59589H40.0127V7.98458H42.3326V9.60001H40.0127V11.0738H43.0964V12.6891H38.1172Z" fill="white"/>
<path d="M44.2852 12.6891V4.98047H49.1229V6.59589H46.1807V7.98458H48.5288V9.60001H46.1807V11.0738H49.2644V12.6891H44.2852Z" fill="white"/>
<path d="M52.3477 11.0738H53.1116C53.7623 11.0738 54.2998 10.8753 54.6676 10.4786C55.0353 10.0818 55.2334 9.54333 55.2334 8.80645C55.2334 8.09795 55.0353 7.53114 54.6676 7.1627C54.2998 6.79426 53.7905 6.59589 53.1398 6.59589H52.376V11.0738H52.3477ZM50.4805 12.6891V4.98047H53.2247C54.4412 4.98047 55.4032 5.32056 56.1104 6.00074C56.8177 6.68092 57.1855 7.61614 57.1855 8.80645C57.1855 10.0251 56.8177 10.9604 56.1104 11.6406C55.4032 12.3207 54.4412 12.6608 53.2247 12.6608H50.4805V12.6891Z" fill="white"/>
<path d="M59.9286 8.7782C59.9286 9.43008 60.1267 9.99689 60.5228 10.422C60.9188 10.8471 61.3998 11.0738 62.0222 11.0738C62.6163 11.0738 63.1258 10.8471 63.5214 10.422C63.9177 9.99689 64.1158 9.43008 64.1158 8.7782C64.1158 8.1547 63.9177 7.61627 63.5214 7.19114C63.1258 6.76602 62.6446 6.56765 62.0222 6.56765C61.4281 6.56765 60.9188 6.76602 60.5228 7.19114C60.1267 7.61627 59.9286 8.1547 59.9286 8.7782ZM57.9766 8.7782C57.9766 7.64458 58.3444 6.70935 59.1082 5.9725C59.8721 5.23564 60.8339 4.83887 61.9939 4.83887C63.1821 4.83887 64.1439 5.2073 64.8796 5.9725C65.6433 6.7377 66.0114 7.67295 66.0114 8.7782C66.0114 9.9402 65.6433 10.8755 64.8796 11.669C64.1158 12.4342 63.1539 12.831 61.9939 12.831C60.8057 12.831 59.8438 12.4342 59.1082 11.669C58.3444 10.9038 57.9766 9.9402 57.9766 8.7782Z" fill="white"/>
<path d="M66.918 12.6891L67.5405 4.98047H69.5773L70.7092 8.23964L71.1048 9.51501H71.1336C71.2748 9.00489 71.4161 8.57976 71.5292 8.23964L72.6611 4.98047H74.698L75.3205 12.6891H73.4248L73.1986 9.23158C73.1705 9.06151 73.1705 8.86314 73.1705 8.63645C73.1705 8.4097 73.1705 8.23964 73.1705 8.12633V7.92789H73.1423C72.9723 8.46639 72.8311 8.89151 72.718 9.23158L71.8973 11.4705H70.2848L69.4642 9.23158L69.0398 7.92789H69.0117C69.0398 8.4097 69.0398 8.83483 69.0117 9.23158L68.7855 12.6891H66.918Z" fill="white"/>
<path d="M10.0808 24.3376C10.0808 24.3376 0.320312 21.4468 0.320312 7.21975V1.75H19.8412V7.19144C19.8412 20.9367 10.0808 24.3376 10.0808 24.3376Z" fill="#4DBD41"/>
<path d="M15.7106 7.24813H7.8457V11.7826H15.7106V13.143C15.7106 15.4386 15.06 17.2808 11.5801 17.2808H7.8457V23.2606C9.14708 24.0542 10.0807 24.3376 10.0807 24.3376C10.0807 24.3376 19.8411 20.9367 19.8411 7.19144V3.08203C19.8411 5.37763 18.8226 7.19144 15.7106 7.24813Z" fill="#1C5030"/>
<path d="M25.3008 20.4551V15.042H27.5358C28.045 15.042 28.4694 15.212 28.8089 15.5521C29.1201 15.8922 29.2898 16.3456 29.2898 16.8841C29.2898 17.4226 29.1201 17.8761 28.8089 18.2445C28.4977 18.5846 28.0733 18.7829 27.5358 18.7829H26.6305V20.4551H25.3008ZM26.6305 17.6493H27.2812C27.5075 17.6493 27.6772 17.5926 27.7904 17.4509C27.9036 17.3092 27.9602 17.1392 27.9602 16.9124C27.9602 16.6857 27.9036 16.5157 27.7904 16.374C27.6772 16.2322 27.5075 16.1756 27.3095 16.1756H26.6305V17.6493Z" fill="#F1F1F1"/>
<path d="M29.4609 20.4551L31.2999 15.042H32.6861L34.5251 20.4551H33.1671L32.8276 19.3214H31.1584L30.8472 20.4551H29.4609ZM31.4696 18.2445H32.5447L32.2335 17.1959L32.0072 16.2606H31.9789C31.894 16.6574 31.8374 16.9691 31.7526 17.1959L31.4696 18.2445Z" fill="#F1F1F1"/>
<path d="M36.2218 20.4551V18.2445L34.4395 15.042H35.9389L36.5613 16.3456L36.8725 17.1109H36.9008C37.014 16.8274 37.0988 16.5724 37.212 16.3456L37.8061 15.042H39.3055L37.5231 18.2445V20.4551H36.2218Z" fill="#F1F1F1"/>
</g>
</g>
</g>
<defs>
<clipPath id="clip0_70_126">
<rect width="75" height="25" fill="white" transform="translate(0.320312 0.5)"/>
</clipPath>
<clipPath id="clip1_70_126">
<rect width="75" height="25" fill="white" transform="translate(0.320312 0.5)"/>
</clipPath>
<clipPath id="clip2_70_126">
<rect width="75" height="25" fill="white" transform="translate(0.320312 0.5)"/>
</clipPath>
</defs>
</svg>
