<svg width="61" height="26" viewBox="0 0 61 26" fill="none" xmlns="http://www.w3.org/2000/svg">
<g clip-path="url(#clip0_70_82)">
<g clip-path="url(#clip1_70_82)">
<g clip-path="url(#clip2_70_82)">
<path d="M37.8926 0.500977H60.51V21.4118H46.5958L47.8105 19.3043L41.6095 25.4992V21.4118H37.8987V0.500977H37.8926ZM56.9206 13.6317L57.1453 4.98924H54.9346L55.1593 13.6317H56.9206ZM55.0196 16.9235H57.0603V14.8889H55.0196V16.9235ZM41.4577 10.9594C41.4577 14.0083 43.4741 17.0632 47.4704 17.0754C51.4606 17.0754 53.4345 14.0143 53.4345 10.9594C53.4345 7.90448 51.4545 4.84348 47.4461 4.84348C43.4741 4.85562 41.4577 7.90448 41.4577 10.9594ZM47.4947 6.84771H47.519C50.0334 6.84771 51.2723 8.87016 51.2723 10.8865C51.2723 12.9029 50.0334 14.9254 47.519 14.9254H47.4947C44.9985 14.9132 43.7109 12.8968 43.7109 10.8865C43.7109 8.87623 44.9924 6.85985 47.4947 6.84771Z" fill="#E6007E"/>
<path d="M3.47959 4.96484L6.9293 14.1296L10.3669 4.96484H13.0574V16.9234H10.9863V12.9818L11.1928 7.71003L7.66418 16.9234H6.17619L2.6536 7.71611L2.8601 12.9818V16.9234H0.789062V4.96484H3.47959Z" fill="white"/>
<path d="M14.9453 12.3987C14.9453 11.5302 15.1154 10.7468 15.4616 10.0483C15.8077 9.34987 16.2875 8.8154 16.9131 8.43885C17.5387 8.0623 18.2553 7.87402 19.0631 7.87402C20.2596 7.87402 21.2374 8.26272 21.9844 9.03405C22.7314 9.80537 23.1384 10.8257 23.1991 12.1011L23.2052 12.5688C23.2052 13.4434 23.0351 14.2268 22.7011 14.9192C22.367 15.6116 21.8812 16.14 21.2556 16.5226C20.63 16.8991 19.9073 17.0874 19.0813 17.0874C17.8302 17.0874 16.822 16.6683 16.075 15.8363C15.3219 15.0042 14.9453 13.8867 14.9453 12.4959V12.3987ZM16.9374 12.5688C16.9374 13.4859 17.1257 14.1965 17.5022 14.7188C17.8788 15.235 18.4072 15.4962 19.0813 15.4962C19.7555 15.4962 20.2778 15.235 20.6543 14.7066C21.0309 14.1782 21.2192 13.413 21.2192 12.3987C21.2192 11.4999 21.0248 10.7893 20.6422 10.2609C20.2535 9.73249 19.7312 9.47133 19.0692 9.47133C18.4193 9.47133 17.897 9.73249 17.5144 10.2487C17.1317 10.771 16.9374 11.5424 16.9374 12.5688Z" fill="white"/>
<path d="M30.4387 8.03805H32.4248V16.9235H30.4387V10.9958L26.9587 16.9235H24.9727V8.03805H26.9587V13.9657L30.4387 8.03805ZM31.374 4.63086C31.374 5.32323 31.1311 5.88199 30.6513 6.30712C30.1715 6.73226 29.5277 6.94483 28.72 6.94483C27.9183 6.94483 27.2745 6.73226 26.7886 6.30712C26.3027 5.88199 26.0719 5.31716 26.0719 4.63086H27.566C27.566 4.98919 27.6693 5.2625 27.8758 5.46292C28.0822 5.65727 28.3616 5.76052 28.726 5.76052C29.0844 5.76052 29.3698 5.66334 29.5702 5.46292C29.7707 5.26857 29.8739 4.98919 29.8739 4.63086H31.374Z" fill="white"/>
</g>
</g>
</g>
<defs>
<clipPath id="clip0_70_82">
<rect width="59.72" height="25" fill="white" transform="translate(0.789062 0.5)"/>
</clipPath>
<clipPath id="clip1_70_82">
<rect width="59.72" height="25" fill="white" transform="translate(0.789062 0.5)"/>
</clipPath>
<clipPath id="clip2_70_82">
<rect width="59.72" height="24.9982" fill="white" transform="translate(0.789062 0.500977)"/>
</clipPath>
</defs>
</svg>
