<svg width="25" height="25" viewBox="0 0 25 25" fill="none" xmlns="http://www.w3.org/2000/svg">
<g clip-path="url(#clip0_70_173)">
<g clip-path="url(#clip1_70_173)">
<g clip-path="url(#clip2_70_173)">
<path d="M15.479 5.39509C16.4671 5.58788 17.3752 6.07111 18.087 6.78297C18.7989 7.49481 19.2822 8.40289 19.4749 9.39097L15.479 5.39509ZM15.479 1.34863C17.5319 1.57669 19.4461 2.49598 20.9076 3.95557C22.369 5.41516 23.2907 7.3283 23.5213 9.38085L15.479 1.34863ZM22.5097 17.4535V20.4884C22.5109 20.7701 22.4532 21.049 22.3403 21.3071C22.2275 21.5652 22.0619 21.797 21.8543 21.9875C21.6467 22.1779 21.4016 22.3229 21.1347 22.4132C20.8679 22.5034 20.585 22.537 20.3044 22.5116C17.1915 22.1733 14.2013 21.1096 11.5742 19.406C9.12995 17.8528 7.05767 15.7805 5.50449 13.3363C3.79484 10.6972 2.7309 7.69246 2.39884 4.56557C2.37356 4.28583 2.40681 4.00388 2.49646 3.73768C2.58612 3.4715 2.73021 3.22689 2.91958 3.01944C3.10895 2.81198 3.33945 2.64624 3.59638 2.53275C3.85332 2.41926 4.13106 2.36051 4.41195 2.36025H7.44679C7.93774 2.35541 8.41369 2.52927 8.78593 2.84939C9.15817 3.16953 9.40132 3.61409 9.47002 4.10023C9.59812 5.07145 9.83567 6.02506 10.1782 6.94286C10.3143 7.30494 10.3437 7.69845 10.263 8.07676C10.1824 8.45507 9.99492 8.80232 9.72293 9.07737L8.43818 10.3621C9.87827 12.8947 11.9753 14.9917 14.5078 16.4318L15.7926 15.1471C16.0676 14.875 16.4149 14.6876 16.7933 14.607C17.1715 14.5262 17.565 14.5558 17.9271 14.6918C18.8449 15.0344 19.7986 15.2719 20.7697 15.4C21.2612 15.4693 21.7099 15.7168 22.0308 16.0954C22.3516 16.4741 22.5221 16.9574 22.5097 17.4535Z" stroke="white" stroke-width="1.01161" stroke-linecap="round" stroke-linejoin="round"/>
</g>
</g>
</g>
<defs>
<clipPath id="clip0_70_173">
<rect width="24.2788" height="24.2788" fill="white" transform="translate(0.253906 0.336914)"/>
</clipPath>
<clipPath id="clip1_70_173">
<rect width="24.2788" height="24.2788" fill="white" transform="translate(0.253906 0.336914)"/>
</clipPath>
<clipPath id="clip2_70_173">
<rect width="24.2788" height="24.2788" fill="white" transform="translate(0.253906 0.336914)"/>
</clipPath>
</defs>
</svg>
