<svg width="298" height="59" viewBox="0 0 298 59" fill="none" xmlns="http://www.w3.org/2000/svg">
<path d="M17.99 43.1969C13.4022 43.1969 9.47966 41.5683 6.22938 38.3181C2.9791 35.0678 1.35742 31.1522 1.35742 26.5575C1.35742 21.9627 2.9791 18.0471 6.22938 14.7969C9.47966 11.5466 13.4022 9.91797 17.99 9.91797C21.2888 9.91797 24.3104 10.812 27.0339 12.6C29.7644 14.388 31.7881 16.7443 33.1117 19.6619H24.144C22.3699 18.061 20.3185 17.264 17.99 17.264C15.4535 17.264 13.2774 18.1649 11.4756 19.9737C9.66677 21.7825 8.76584 23.9725 8.76584 26.5436C8.76584 29.1147 9.66677 31.2562 11.4756 33.058C13.2844 34.8668 15.4535 35.7677 17.99 35.7677C20.769 35.7677 23.0976 34.7074 24.9757 32.5868H33.4721C32.2178 35.7539 30.1941 38.3042 27.3943 40.2516C24.5945 42.199 21.4551 43.1692 17.9831 43.1692L17.99 43.1969Z" fill="black"/>
<path d="M105.692 24.7414V43.2036H98.3392V24.7414C98.3392 22.6901 97.6185 20.9437 96.177 19.5022C94.7355 18.0607 92.9891 17.34 90.9377 17.34C88.8864 17.34 87.14 18.0607 85.6985 19.5022C84.257 20.9437 83.5362 22.6901 83.5362 24.7414V43.2036L76.1348 46.9043V24.7414C76.1348 20.6388 77.5763 17.1459 80.4592 14.2629C83.3422 11.38 86.835 9.93848 90.9377 9.93848C95.0404 9.93848 98.4778 11.38 101.368 14.2629C104.258 17.1459 105.699 20.6388 105.699 24.7414H105.692Z" fill="black"/>
<path d="M127.646 43.1969C123.058 43.1969 119.136 41.5683 115.886 38.3181C112.635 35.0678 111.014 31.1522 111.014 26.5575C111.014 21.9627 112.635 18.0471 115.886 14.7969C119.136 11.5466 123.058 9.91797 127.646 9.91797C130.945 9.91797 133.967 10.812 136.69 12.6C139.421 14.388 141.444 16.7443 142.768 19.6619H133.8C132.026 18.061 129.975 17.264 127.646 17.264C125.11 17.264 122.934 18.1649 121.132 19.9737C119.323 21.7825 118.422 23.9725 118.422 26.5436C118.422 29.1147 119.323 31.2562 121.132 33.058C122.941 34.8668 125.11 35.7677 127.646 35.7677C130.425 35.7677 132.754 34.7074 134.632 32.5868H143.128C141.874 35.7539 139.85 38.3042 137.051 40.2516C134.251 42.199 131.111 43.1692 127.639 43.1692L127.646 43.1969Z" fill="black"/>
<path d="M152.388 14.8105C155.638 11.5602 159.553 9.93164 164.148 9.93164C168.743 9.93164 172.658 11.5602 175.909 14.8105C179.159 18.0608 180.788 21.9764 180.788 26.5711C180.788 27.3335 180.732 28.0819 180.628 28.8165H155.18C155.666 30.8332 156.747 32.5034 158.417 33.8202C160.087 35.1438 162 35.8022 164.155 35.8022C166.31 35.8022 168.362 35.0745 170.101 33.6122H179.173C177.815 36.5022 175.791 38.8169 173.095 40.5771C170.399 42.3305 167.419 43.2106 164.155 43.2106C159.567 43.2106 155.645 41.582 152.395 38.3317C149.144 35.0815 147.516 31.1659 147.516 26.5711C147.516 21.9764 149.137 18.0608 152.395 14.8105H152.388ZM155.492 23.2862H172.749C172.09 21.5121 170.974 20.0706 169.408 18.9617C167.842 17.8529 166.089 17.2915 164.141 17.2915C162.194 17.2915 160.427 17.846 158.847 18.9617C157.266 20.0775 156.144 21.519 155.485 23.2862H155.492Z" fill="black"/>
<path d="M185.945 26.5643C185.945 21.9765 187.567 18.054 190.817 14.8037C194.068 11.5534 197.99 9.9248 202.578 9.9248V17.3263C200.041 17.3263 197.865 18.2272 196.063 20.036C194.255 21.8448 193.354 24.014 193.354 26.5504V43.183L185.952 46.8837V26.5504L185.945 26.5643Z" fill="black"/>
<path d="M218.482 4.40094V9.56396H221.822V15.0943H218.482V32.0941C218.482 33.1406 218.849 34.0138 219.577 34.7276C220.305 35.4415 221.178 35.7949 222.183 35.7949H224.005V43.1964H222.183C219.127 43.1964 216.507 42.1083 214.338 39.9392C212.162 37.77 211.081 35.1504 211.081 32.0941V15.0943H207.74V9.56396H211.081V0.700195L218.482 4.40094Z" fill="black"/>
<path d="M231.414 0.700291L238.816 4.40104V24.8383L249.717 9.92443H258.892L247.783 25.0947L260.771 43.1895H251.643L238.816 25.2541V43.1895H231.414V0.693359V0.700291Z" fill="#FF0000"/>
<path d="M280.009 43.197C275.421 43.197 271.498 41.5683 268.248 38.3181C264.998 35.0678 263.369 31.1522 263.369 26.5575C263.369 21.9627 264.991 18.0471 268.248 14.7969C271.498 11.5466 275.414 9.91797 280.009 9.91797C284.603 9.91797 288.519 11.5466 291.769 14.7969C295.02 18.0471 296.648 21.9627 296.648 26.5575V39.6487C296.648 44.2711 295.033 48.2075 291.797 51.4578C288.561 54.7081 284.652 56.3367 280.064 56.3367C276.55 56.3367 273.369 55.3249 270.521 53.3151C267.673 51.2984 265.656 48.6718 264.471 45.4423H272.864C274.638 47.7016 277.015 48.8659 280.009 48.9352C282.441 48.9005 284.548 48.055 286.315 46.4056C288.082 44.7563 289.06 42.7465 289.233 40.3833C286.419 42.2614 283.342 43.197 280.002 43.197H280.009ZM273.466 33.0788C275.254 34.8876 277.438 35.7885 280.009 35.7885C282.58 35.7885 284.763 34.8876 286.551 33.0788C288.339 31.27 289.233 29.1009 289.233 26.5644C289.233 24.0279 288.339 21.8518 286.551 20.05C284.763 18.2412 282.58 17.3403 280.009 17.3403C277.438 17.3403 275.254 18.2412 273.466 20.05C271.678 21.8588 270.784 24.0279 270.784 26.5644C270.784 29.1009 271.678 31.277 273.466 33.0788Z" fill="#FF0000"/>
<path d="M45.4751 38.3243C45.0593 38.3243 44.6435 38.2273 44.2623 38.0263C43.396 37.5758 42.8555 36.6818 42.8555 35.7047V17.4366C42.8555 16.4594 43.396 15.5654 44.2623 15.1149C45.1286 14.6645 46.1681 14.7269 46.972 15.2813L60.1325 24.4153C60.8394 24.9074 61.2622 25.7113 61.2622 26.5706C61.2622 27.43 60.8394 28.2339 60.1325 28.7259L46.972 37.86C46.5216 38.1718 46.0018 38.3312 45.4751 38.3312V38.3243Z" fill="#FF0000"/>
<path d="M39.6258 18.712C38.3437 21.0683 37.6992 23.681 37.6992 26.564C37.6992 29.4469 38.3437 32.0666 39.6258 34.4159V18.7051V18.712Z" fill="black"/>
<path d="M66.0912 14.8037C62.8409 11.5534 58.9184 9.9248 54.3306 9.9248C51.2951 9.9248 48.5577 10.6525 46.1113 12.0732C46.8598 12.2118 47.5944 12.4613 48.2389 12.9117L61.3994 22.0458C62.8756 23.0715 63.7557 24.7624 63.7557 26.5574C63.7557 28.3523 62.8756 30.0433 61.3994 31.0689L48.2389 40.203C47.6083 40.6396 46.8944 40.9307 46.1529 41.0693C48.5923 42.4761 51.309 43.1899 54.3306 43.1899C58.9184 43.1899 62.8409 41.5613 66.0912 38.311C69.3415 35.0608 70.9631 31.1452 70.9631 26.5504C70.9631 21.9557 69.3345 18.0401 66.0912 14.7898V14.8037Z" fill="black"/>
</svg>
