<svg width="254" height="86" viewBox="0 0 254 86" fill="none" xmlns="http://www.w3.org/2000/svg">
<g clip-path="url(#clip0_87_302)">
<path d="M47.7101 35.2102L44.3001 0.610206C44.2959 0.560469 44.3021 0.510411 44.3184 0.46321C44.3346 0.416009 44.3604 0.372695 44.3943 0.336021C44.4281 0.299347 44.4693 0.270113 44.515 0.250175C44.5608 0.230237 44.6102 0.220033 44.6601 0.220206L60.3701 0.200202C60.4209 0.199887 60.4712 0.210348 60.5177 0.230888C60.5643 0.251427 60.6059 0.281585 60.6399 0.319373C60.6739 0.357162 60.6995 0.401721 60.7151 0.450126C60.7306 0.498531 60.7357 0.549679 60.7301 0.600204L57.3301 35.2102C57.3202 35.2986 57.278 35.3802 57.2115 35.4393C57.145 35.4984 57.059 35.5308 56.9701 35.5302H48.0701C47.9811 35.5308 47.8951 35.4984 47.8287 35.4393C47.7622 35.3802 47.72 35.2986 47.7101 35.2102Z" fill="#201A22"/>
<path d="M97.2189 0.249924L111.259 0.169922C111.309 0.169894 111.359 0.182066 111.403 0.205383C111.448 0.228701 111.486 0.262471 111.514 0.303787C111.543 0.345104 111.561 0.39273 111.567 0.442574C111.573 0.492417 111.567 0.542978 111.549 0.58992L92.8489 52.9799C92.8282 53.0406 92.7892 53.0934 92.7373 53.131C92.6854 53.1686 92.623 53.1892 92.5589 53.1899L82.5689 53.1999C82.5048 53.1992 82.4425 53.1786 82.3905 53.141C82.3386 53.1034 82.2996 53.0506 82.2789 52.9899L63.6689 0.629921C63.6531 0.583534 63.6485 0.534062 63.6555 0.485558C63.6625 0.437053 63.681 0.390902 63.7093 0.350891C63.7376 0.31088 63.7749 0.278145 63.8183 0.255379C63.8617 0.232613 63.9099 0.220466 63.9589 0.219925L77.8589 0.209923C77.9248 0.208532 77.9893 0.228135 78.0432 0.265892C78.0972 0.303649 78.1377 0.357597 78.1589 0.419922L87.3589 28.7099C87.3791 28.7723 87.4185 28.8267 87.4715 28.8653C87.5245 28.9039 87.5884 28.9247 87.6539 28.9247C87.7195 28.9247 87.7834 28.9039 87.8364 28.8653C87.8894 28.8267 87.9288 28.7723 87.9489 28.7099L96.9189 0.459923C96.9401 0.397598 96.9807 0.34365 97.0346 0.305893C97.0885 0.268136 97.1531 0.248533 97.2189 0.249924Z" fill="#201A22"/>
<path d="M129.439 12.1902L129.449 20.1602C129.449 20.2716 129.493 20.3784 129.572 20.4572C129.65 20.5359 129.757 20.5802 129.869 20.5802L150.099 20.5402C150.21 20.5402 150.317 20.5844 150.396 20.6632C150.474 20.742 150.519 20.8488 150.519 20.9602L150.509 31.8802C150.509 31.9916 150.464 32.0984 150.386 32.1772C150.307 32.256 150.2 32.3002 150.089 32.3002L129.859 32.2902C129.747 32.2902 129.64 32.3344 129.562 32.4132C129.483 32.492 129.439 32.5988 129.439 32.7102L129.459 41.0602C129.459 41.1716 129.503 41.2784 129.582 41.3572C129.66 41.4359 129.767 41.4802 129.879 41.4802H153.779C153.89 41.4802 153.997 41.5244 154.076 41.6032C154.154 41.682 154.199 41.7888 154.199 41.9002L154.209 52.7502C154.209 52.8054 154.198 52.86 154.177 52.9109C154.156 52.9619 154.125 53.0082 154.086 53.0472C154.047 53.0862 154 53.1171 153.949 53.1382C153.898 53.1593 153.844 53.1702 153.789 53.1702L115.729 53.2002C115.617 53.2002 115.51 53.1559 115.432 53.0772C115.353 52.9984 115.309 52.8916 115.309 52.7802L115.319 0.620201C115.319 0.50881 115.363 0.401977 115.442 0.323212C115.52 0.244446 115.627 0.200195 115.739 0.200195L153.769 0.2202C153.88 0.2202 153.987 0.264451 154.066 0.343216C154.144 0.421981 154.189 0.528807 154.189 0.640198L154.229 11.3602C154.229 11.4716 154.184 11.5784 154.106 11.6572C154.027 11.7359 153.92 11.7802 153.809 11.7802L129.859 11.7702C129.747 11.7702 129.64 11.8144 129.562 11.8932C129.483 11.972 129.439 12.0788 129.439 12.1902Z" fill="#201A22"/>
<path d="M192.059 0.219688L205.519 0.209686C205.601 0.209686 205.68 0.242347 205.738 0.300484C205.796 0.35862 205.829 0.437467 205.829 0.519684L205.809 52.8797C205.809 52.9619 205.776 53.0407 205.718 53.0989C205.66 53.157 205.581 53.1897 205.499 53.1897H193.709C193.659 53.1882 193.61 53.1747 193.566 53.1503C193.523 53.1259 193.486 53.0914 193.459 53.0497L175.979 27.4697C175.942 27.4127 175.887 27.3694 175.823 27.3465C175.759 27.3235 175.69 27.3221 175.625 27.3426C175.56 27.363 175.504 27.4041 175.465 27.4596C175.426 27.5151 175.406 27.5819 175.409 27.6497L175.459 52.8697C175.459 52.9519 175.426 53.0308 175.368 53.0889C175.31 53.147 175.231 53.1797 175.149 53.1797L161.619 53.2197C161.536 53.2197 161.458 53.187 161.399 53.1289C161.341 53.0707 161.309 52.9919 161.309 52.9097V0.489685C161.309 0.407468 161.341 0.328621 161.399 0.270485C161.458 0.212349 161.536 0.179688 161.619 0.179688L173.509 0.239685C173.558 0.240063 173.606 0.252046 173.649 0.274643C173.693 0.29724 173.73 0.329812 173.759 0.36969L191.179 25.7997C191.215 25.8558 191.269 25.8987 191.332 25.9218C191.394 25.9449 191.463 25.9471 191.527 25.9279C191.591 25.9088 191.648 25.8694 191.688 25.8157C191.727 25.7619 191.749 25.6966 191.749 25.6297V0.529686C191.749 0.447469 191.781 0.368622 191.839 0.310486C191.898 0.25235 191.976 0.219688 192.059 0.219688Z" fill="#201A22"/>
<path d="M14.3803 41.48L37.4103 41.49C37.5138 41.49 37.6129 41.5311 37.6861 41.6042C37.7592 41.6773 37.8003 41.7765 37.8003 41.88V52.78C37.8003 52.8834 37.7592 52.9826 37.6861 53.0557C37.6129 53.1289 37.5138 53.17 37.4103 53.17L0.210312 53.19C0.106877 53.19 0.00768089 53.1489 -0.0654583 53.0757C-0.138597 53.0026 -0.179687 52.9034 -0.179688 52.8V0.59996C-0.179688 0.496526 -0.138597 0.397327 -0.0654583 0.324188C0.00768089 0.251049 0.106877 0.209961 0.210312 0.209961L13.6103 0.229965C13.7137 0.229965 13.8129 0.271053 13.8861 0.344193C13.9592 0.417332 14.0003 0.51653 14.0003 0.619965L13.9903 41.09C13.9903 41.1934 14.0314 41.2926 14.1045 41.3657C14.1777 41.4389 14.2769 41.48 14.3803 41.48Z" fill="#201A22"/>
<path d="M211.75 11.3602V0.640198C211.75 0.528807 211.794 0.421981 211.873 0.343216C211.952 0.264451 212.059 0.2202 212.17 0.2202L253.35 0.200195C253.461 0.200195 253.568 0.244446 253.647 0.323212C253.726 0.401977 253.77 0.50881 253.77 0.620201L253.79 11.3502C253.79 11.4616 253.746 11.5684 253.667 11.6472C253.588 11.726 253.481 11.7702 253.37 11.7702L240.22 11.7902C240.109 11.7902 240.002 11.8345 239.923 11.9132C239.844 11.992 239.8 12.0988 239.8 12.2102V52.7702C239.8 52.8816 239.756 52.9884 239.677 53.0672C239.598 53.146 239.491 53.1902 239.38 53.1902L226.14 53.2002C226.029 53.2002 225.922 53.1559 225.843 53.0772C225.764 52.9984 225.72 52.8916 225.72 52.7802V12.2002C225.72 12.0888 225.676 11.982 225.597 11.9032C225.518 11.8244 225.411 11.7802 225.3 11.7802H212.17C212.059 11.7802 211.952 11.7359 211.873 11.6572C211.794 11.5784 211.75 11.4716 211.75 11.3602Z" fill="#201A22"/>
<path d="M58.919 41.0492L46.059 41.0717C45.8657 41.072 45.7093 41.229 45.7096 41.4223L45.7296 52.8622C45.7299 53.0555 45.8869 53.212 46.0802 53.2116L58.9402 53.1892C59.1335 53.1889 59.2899 53.0319 59.2895 52.8386L59.2696 41.3986C59.2692 41.2053 59.1123 41.0489 58.919 41.0492Z" fill="#201A22"/>
<path d="M3.46909 78.6798C3.81576 78.9198 4.20909 79.0631 4.64909 79.1098C4.82428 79.1282 4.99059 79.1986 5.12745 79.3123C5.2643 79.4261 5.3657 79.5782 5.41909 79.7498C5.53909 80.1298 5.46576 80.4698 5.19909 80.7698C4.95909 81.0498 4.65243 81.1831 4.27909 81.1698C1.85909 81.1031 0.632427 79.8731 0.599094 77.4798C0.539094 73.7731 0.545761 69.7931 0.619094 65.5398C0.623996 65.2822 0.727163 65.0362 0.907483 64.8522C1.0878 64.6681 1.33164 64.56 1.58909 64.5498C1.66909 64.5498 1.75243 64.5498 1.83909 64.5498C2.56576 64.5965 2.93243 64.9831 2.93909 65.7098L2.99909 77.7698C2.99886 77.9459 3.04134 78.1203 3.12305 78.2785C3.20476 78.4367 3.32335 78.5742 3.46909 78.6798Z" fill="#232223"/>
<path d="M11.4002 67.32C12.179 67.32 12.8102 66.6887 12.8102 65.91C12.8102 65.1313 12.179 64.5 11.4002 64.5C10.6215 64.5 9.99023 65.1313 9.99023 65.91C9.99023 66.6887 10.6215 67.32 11.4002 67.32Z" fill="#232223"/>
<path d="M116.681 71.7897L116.721 77.9197C116.727 78.3864 116.954 78.6931 117.401 78.8397L118.401 79.1797C118.514 79.2175 118.619 79.2788 118.708 79.3596C118.798 79.4405 118.87 79.5392 118.921 79.6497C119.094 80.0364 119.067 80.3964 118.841 80.7297C118.661 80.9764 118.414 81.1131 118.101 81.1397C112.831 81.5397 114.411 74.9897 114.241 72.0797C114.229 71.9159 114.171 71.7591 114.073 71.628C113.976 71.4968 113.843 71.3968 113.691 71.3397C113.317 71.1997 113.037 70.9631 112.851 70.6297C112.806 70.5468 112.78 70.4557 112.772 70.3622C112.764 70.2687 112.776 70.1749 112.806 70.0865C112.836 69.9982 112.884 69.9173 112.947 69.849C113.009 69.7807 113.086 69.7265 113.171 69.6897C114.164 69.2497 114.541 68.4564 114.301 67.3097C114.201 66.8231 114.341 66.4431 114.721 66.1697C115.021 65.9497 115.357 65.8797 115.731 65.9597C116.531 66.1131 116.837 66.5897 116.651 67.3897C116.531 67.9164 116.504 68.4397 116.571 68.9597C116.591 69.0962 116.658 69.2214 116.76 69.3143C116.862 69.4072 116.993 69.4621 117.131 69.4697L118.461 69.5597C118.881 69.5864 119.061 69.8064 119.001 70.2197L118.921 70.7897C118.881 71.0564 118.727 71.1931 118.461 71.1997L117.211 71.2397C116.851 71.2531 116.674 71.4364 116.681 71.7897Z" fill="#232223"/>
<path d="M11.6892 69.3099L11.0292 69.3111C10.5708 69.3119 10.1999 69.6841 10.2007 70.1425L10.2186 80.4025C10.2194 80.8609 10.5916 81.2318 11.05 81.231L11.71 81.2299C12.1684 81.2291 12.5394 80.8568 12.5386 80.3984L12.5207 70.1384C12.5199 69.6801 12.1476 69.3091 11.6892 69.3099Z" fill="#232223"/>
<path d="M21.5713 76.2602C21.9247 77.3335 22.268 77.3302 22.6013 76.2502L24.4413 70.4002C24.535 70.0996 24.7204 69.8358 24.9714 69.6457C25.2224 69.4557 25.5266 69.3488 25.8413 69.3402L26.4413 69.3302C27.0547 69.3168 27.2547 69.5968 27.0413 70.1702L23.2413 80.5302C23.1852 80.6894 23.094 80.8341 22.9746 80.9535C22.8552 81.0729 22.7106 81.164 22.5513 81.2202C21.778 81.4935 21.238 81.2268 20.9313 80.4202C19.7113 77.1802 18.4547 73.8368 17.1613 70.3902C17.121 70.2787 17.1038 70.1602 17.1109 70.0419C17.118 69.9236 17.1492 69.808 17.2026 69.7022C17.256 69.5964 17.3304 69.5026 17.4213 69.4266C17.5122 69.3506 17.6177 69.294 17.7313 69.2602C18.0913 69.1535 18.468 69.1868 18.8613 69.3602C19.0314 69.4356 19.1834 69.5459 19.3075 69.6838C19.4316 69.8217 19.5249 69.984 19.5813 70.1602L21.5713 76.2602Z" fill="#232223"/>
<path d="M33.4898 76.0201C33.3979 76.0193 33.3075 76.0415 33.2264 76.0847C33.1452 76.128 33.0759 76.1909 33.0246 76.2679C32.9732 76.345 32.9414 76.4338 32.9318 76.5266C32.9222 76.6194 32.9353 76.7133 32.9698 76.8C33.9431 79.12 35.5831 79.7301 37.8898 78.6301C38.0615 78.5507 38.2445 78.5033 38.4298 78.4901C39.3098 78.4101 39.8265 78.5834 39.9798 79.01C40.1265 79.41 40.0298 79.73 39.6898 79.97C35.8098 82.77 30.6798 81 30.6298 75.73C30.5831 71.4367 32.3765 69.29 36.0098 69.29C36.749 69.2904 37.4746 69.4848 38.1136 69.8534C38.7526 70.2221 39.2825 70.7521 39.6498 71.39C40.0631 72.11 40.3698 72.9134 40.5698 73.8C40.9098 75.26 40.3298 75.9934 38.8298 76L33.4898 76.0201ZM33.4398 74.3L37.7198 74.39C37.7776 74.3914 37.8351 74.3813 37.889 74.3604C37.9428 74.3395 37.9921 74.3082 38.0339 74.2683C38.0757 74.2283 38.1092 74.1806 38.1325 74.1277C38.1558 74.0748 38.1685 74.0178 38.1698 73.9601V73.83C38.1764 73.5083 38.1196 73.1884 38.0026 72.8886C37.8855 72.5888 37.7106 72.315 37.4877 72.0828C37.2648 71.8507 36.9984 71.6647 36.7036 71.5355C36.4089 71.4064 36.0916 71.3365 35.7698 71.33H35.5098C35.188 71.3234 34.8681 71.3802 34.5683 71.4973C34.2685 71.6143 33.9948 71.7893 33.7626 72.0121C33.5304 72.235 33.3445 72.5014 33.2153 72.7962C33.0861 73.091 33.0163 73.4083 33.0098 73.73V73.86C33.0098 73.975 33.0547 74.0855 33.1351 74.1677C33.2155 74.2499 33.3248 74.2974 33.4398 74.3Z" fill="#232223"/>
<path d="M59.3987 75.9598C59.2568 75.9601 59.1174 75.9971 58.9941 76.0673C58.8708 76.1376 58.7679 76.2386 58.6953 76.3605C58.6228 76.4824 58.5831 76.6211 58.5802 76.763C58.5773 76.9048 58.6112 77.045 58.6787 77.1698C59.8654 79.3832 61.6487 79.7831 64.0287 78.3698C64.3354 78.1898 64.652 78.1665 64.9787 78.2998C65.3254 78.4465 65.522 78.7132 65.5687 79.0998C65.6087 79.3932 65.522 79.6398 65.3087 79.8398C64.482 80.6065 63.5387 81.0465 62.4787 81.1598C58.9787 81.5198 56.9487 80.0832 56.3887 76.8498C54.7087 67.1898 66.9787 66.8898 66.2087 75.3298C66.1687 75.7698 65.9287 75.9865 65.4887 75.9798L59.3987 75.9598ZM59.0187 74.3498L63.3987 74.3098C63.4915 74.3098 63.5805 74.2729 63.6462 74.2073C63.7118 74.1417 63.7487 74.0527 63.7487 73.9598V73.7098C63.7461 73.392 63.6809 73.0778 63.5568 72.7852C63.4328 72.4926 63.2523 72.2273 63.0258 72.0045C62.7992 71.7816 62.5309 71.6055 62.2363 71.4864C61.9417 71.3672 61.6265 71.3072 61.3087 71.3098H61.0687C60.7509 71.3124 60.4367 71.3776 60.1441 71.5017C59.8515 71.6257 59.5862 71.8062 59.3633 72.0327C59.1405 72.2593 58.9644 72.5276 58.8452 72.8222C58.726 73.1168 58.666 73.432 58.6687 73.7498V73.9998C58.6687 74.0926 58.7056 74.1817 58.7712 74.2473C58.8368 74.3129 58.9259 74.3498 59.0187 74.3498Z" fill="#232223"/>
<path d="M75.2093 76.5101L77.1693 70.3401C77.2652 70.0334 77.4546 69.7643 77.7111 69.5707C77.9675 69.377 78.2781 69.2684 78.5993 69.2601L78.9993 69.2401C79.7393 69.2201 79.9827 69.5568 79.7293 70.2501L75.9693 80.4201C75.8956 80.6219 75.7707 80.802 75.6064 80.9436C75.442 81.0852 75.2435 81.1838 75.0293 81.2301C74.3027 81.3834 73.816 81.1068 73.5693 80.4001C72.436 77.1668 71.1893 73.7968 69.8293 70.2901C69.5693 69.6168 69.8027 69.2768 70.5293 69.2701H70.8793C71.1891 69.2695 71.4915 69.3655 71.7442 69.5447C71.9969 69.724 72.1874 69.9775 72.2893 70.2701L74.4793 76.5201C74.7327 77.2534 74.976 77.2501 75.2093 76.5101Z" fill="#232223"/>
<path d="M85.8109 76.7801C86.3509 78.2268 87.3943 79.0435 88.9409 79.2301C89.3476 79.2768 89.7243 79.1935 90.0709 78.9801L91.1509 78.3201C91.5043 78.1068 91.8443 78.1268 92.1709 78.3801C92.4309 78.5801 92.6376 78.8268 92.7909 79.1201C92.9509 79.4335 92.8909 79.6935 92.6109 79.9001C87.1609 83.8601 82.1009 78.9801 83.8409 73.0201C84.6476 70.2535 86.4843 69.0135 89.3509 69.3001C90.0459 69.3723 90.7078 69.6309 91.2661 70.0483C91.8244 70.4657 92.2581 71.0262 92.5209 71.6701C92.8209 72.3901 93.1209 73.1135 93.4209 73.8401C93.9876 75.2068 93.5309 75.9035 92.0509 75.9301L86.3109 76.0401C85.7976 76.0468 85.6309 76.2935 85.8109 76.7801ZM86.3309 74.4301L90.6309 74.3101C90.69 74.3088 90.7483 74.2959 90.8024 74.2721C90.8565 74.2483 90.9054 74.214 90.9462 74.1713C90.9871 74.1286 91.0191 74.0782 91.0405 74.0231C91.0619 73.968 91.0723 73.9092 91.0709 73.8501L91.0609 73.7001C91.0426 73.0441 90.765 72.422 90.2889 71.9703C89.8128 71.5186 89.177 71.274 88.5209 71.2901H88.2809C87.9552 71.2992 87.6345 71.3724 87.337 71.5054C87.0396 71.6385 86.7713 71.8289 86.5475 72.0657C86.3237 72.3025 86.1487 72.5811 86.0326 72.8856C85.9166 73.1901 85.8616 73.5144 85.8709 73.8401V73.9901C85.8722 74.0492 85.8852 74.1075 85.909 74.1616C85.9328 74.2157 85.9671 74.2646 86.0098 74.3054C86.0525 74.3463 86.1028 74.3783 86.1579 74.3997C86.213 74.4211 86.2718 74.4315 86.3309 74.4301Z" fill="#232223"/>
<path d="M101.87 69.8902C105.46 68.1702 108.44 70.1202 108.35 74.0402C108.296 76.1668 108.293 78.2102 108.34 80.1702C108.36 80.8902 108.01 81.2468 107.29 81.2402L106.74 81.2302C106.479 81.2275 106.23 81.1221 106.046 80.9367C105.863 80.7513 105.76 80.501 105.76 80.2402L105.78 73.1202C105.786 72.0068 105.233 71.4602 104.12 71.4802L103.36 71.4902C101.94 71.5035 101.226 72.2202 101.22 73.6402V80.2602C101.213 80.9068 100.886 81.2335 100.24 81.2402H99.7498C99.0898 81.2468 98.7598 80.9168 98.7598 80.2502V69.9802C98.7598 69.5668 98.9631 69.3568 99.3698 69.3502C99.9831 69.3435 100.546 69.5068 101.06 69.8402C101.179 69.9166 101.315 69.9614 101.457 69.9701C101.599 69.9789 101.741 69.9514 101.87 69.8902Z" fill="#232223"/>
<path d="M139.501 71.4601C135.251 71.8101 136.641 81.2401 141.091 78.6901C141.678 78.3568 142.268 78.3068 142.861 78.5401C143.011 78.5994 143.142 78.6981 143.241 78.8254C143.34 78.9528 143.402 79.1042 143.422 79.2634C143.441 79.4226 143.417 79.5836 143.352 79.7292C143.287 79.8748 143.183 79.9996 143.051 80.0901C141.178 81.3901 139.335 81.6035 137.521 80.7301C131.651 77.9201 134.711 66.1101 142.571 70.0001C142.911 70.1668 143.135 70.4235 143.241 70.7701C143.401 71.2901 143.265 71.7135 142.831 72.0401C142.731 72.1155 142.615 72.1679 142.491 72.1938C142.366 72.2197 142.237 72.2185 142.111 72.1901C141.211 71.9901 140.461 71.3801 139.501 71.4601Z" fill="#232223"/>
<path d="M157.148 76.9086C157.11 78.0828 156.606 79.1935 155.748 79.9963C154.89 80.799 153.748 81.2281 152.574 81.1892L151.814 81.164C150.64 81.125 149.529 80.6212 148.727 79.7633C147.924 78.9055 147.495 77.7638 147.534 76.5896L147.632 73.6112C147.671 72.4369 148.175 71.3262 149.033 70.5235C149.891 69.7207 151.033 69.2916 152.207 69.3306L152.967 69.3558C154.141 69.3947 155.252 69.8985 156.054 70.7564C156.857 71.6143 157.286 72.7559 157.247 73.9302L157.148 76.9086ZM152.481 79.1784C153.165 79.1593 153.809 78.7249 154.272 77.9709C154.735 77.217 154.979 76.2051 154.949 75.1579C154.935 74.6393 154.854 74.1278 154.711 73.6523C154.568 73.1769 154.366 72.7469 154.116 72.3869C153.866 72.0269 153.574 71.744 153.256 71.5544C152.937 71.3647 152.599 71.2719 152.26 71.2814C151.576 71.3005 150.932 71.7348 150.469 72.4888C150.006 73.2428 149.762 74.2547 149.791 75.3019C149.806 75.8204 149.887 76.332 150.03 76.8074C150.173 77.2829 150.375 77.7128 150.625 78.0728C150.875 78.4328 151.167 78.7157 151.485 78.9054C151.804 79.0951 152.142 79.1878 152.481 79.1784Z" fill="#232223"/>
<path d="M171.9 70.4503C175.37 67.8603 179.41 69.5904 179.33 73.9704C179.29 76.3637 179.28 78.5937 179.3 80.6604C179.3 81.0404 179.11 81.2337 178.73 81.2404H177.76C177.107 81.247 176.8 80.927 176.84 80.2804C176.993 77.747 176.963 75.367 176.75 73.1404C176.63 71.9404 175.967 71.377 174.76 71.4503L174.31 71.4803C173.749 71.516 173.222 71.7645 172.837 72.1751C172.453 72.5858 172.239 73.1277 172.24 73.6904L172.25 80.2504C172.25 80.917 171.917 81.247 171.25 81.2404L170.88 81.2303C170.147 81.2237 169.78 80.8537 169.78 80.1203V73.2504C169.78 72.0637 169.187 71.4737 168 71.4803H167.51C166.01 71.487 165.257 72.2404 165.25 73.7404L165.24 80.2504C165.24 80.9037 164.91 81.2337 164.25 81.2404L163.76 81.2504C163.093 81.257 162.76 80.927 162.76 80.2603L162.75 70.0004C162.743 69.587 162.95 69.3804 163.37 69.3804C163.963 69.387 164.523 69.517 165.05 69.7704C165.343 69.917 165.643 69.927 165.95 69.8004C168.01 68.9537 169.727 69.157 171.1 70.4104C171.211 70.5089 171.352 70.5668 171.498 70.5741C171.643 70.5814 171.786 70.5376 171.9 70.4503Z" fill="#232223"/>
<path d="M187.47 80.7799L187.57 84.9999C187.583 85.5666 187.31 85.8666 186.75 85.8999L186.33 85.9199C185.563 85.9599 185.18 85.5966 185.18 84.8299V70.0199C185.18 69.5266 185.426 69.2766 185.92 69.2699C186.226 69.2632 186.503 69.3432 186.75 69.5099C187.256 69.8566 187.803 69.9432 188.39 69.7699C194.28 68.0799 194.67 71.9599 194.72 76.0699C194.77 79.8599 191.93 82.7299 188.11 80.4099C187.67 80.1432 187.456 80.2666 187.47 80.7799ZM192.284 73.6805C192.289 73.1024 192.064 72.5459 191.659 72.1335C191.253 71.7211 190.701 71.4866 190.123 71.4815L189.783 71.4786C189.497 71.4761 189.213 71.53 188.947 71.6373C188.682 71.7445 188.44 71.903 188.236 72.1036C188.032 72.3043 187.869 72.5432 187.757 72.8067C187.645 73.0702 187.586 73.3532 187.584 73.6395L187.556 76.8793C187.551 77.4575 187.775 78.0139 188.181 78.4263C188.586 78.8387 189.138 79.0732 189.716 79.0783L190.056 79.0812C190.343 79.0837 190.627 79.0298 190.892 78.9226C191.158 78.8153 191.399 78.6569 191.604 78.4562C191.808 78.2555 191.97 78.0166 192.082 77.7531C192.194 77.4896 192.253 77.2066 192.255 76.9203L192.284 73.6805Z" fill="#232223"/>
<path d="M206.28 73.3304C206.253 73.0237 206.177 72.737 206.05 72.4704C205.67 71.697 205.05 71.3204 204.19 71.3404C203.25 71.367 202.37 71.5737 201.55 71.9604C201.277 72.0917 200.965 72.1153 200.674 72.0264C200.383 71.9375 200.136 71.7427 199.98 71.4804L199.81 71.2004C199.732 71.0649 199.709 70.9055 199.744 70.7548C199.779 70.6042 199.871 70.4737 200 70.3904C202.83 68.5904 208.49 68.4804 208.53 73.2404C208.55 75.7737 208.553 78.2104 208.54 80.5504C208.539 80.6725 208.507 80.7924 208.447 80.8988C208.387 81.0052 208.301 81.0946 208.197 81.1586C208.093 81.2226 207.975 81.2591 207.853 81.2646C207.731 81.2702 207.609 81.2446 207.5 81.1904L206.27 80.5804C206.136 80.5132 205.986 80.4817 205.836 80.4887C205.685 80.4957 205.539 80.541 205.41 80.6204C202.38 82.4504 198.55 80.6204 199.26 76.6704C199.593 74.8437 201.607 74.0637 205.3 74.3304C206.02 74.3837 206.347 74.0504 206.28 73.3304ZM201.41 77.2404C201.37 78.3737 201.863 79.0437 202.89 79.2504C204.243 79.517 205.343 79.037 206.19 77.8104C206.315 77.6321 206.387 77.4227 206.399 77.2055C206.412 76.9883 206.363 76.7721 206.259 76.5809C206.155 76.3898 206 76.2314 205.811 76.1236C205.622 76.0157 205.407 75.9627 205.19 75.9704L202.59 76.0704C202.282 76.0802 201.989 76.2064 201.77 76.4234C201.551 76.6405 201.422 76.9323 201.41 77.2404Z" fill="#232223"/>
<path d="M217.54 69.9795C220.48 68.0695 223.79 69.8995 223.93 73.3895C224.016 75.5962 224.036 77.9062 223.99 80.3195C223.985 80.5697 223.881 80.8077 223.701 80.9819C223.521 81.156 223.28 81.2522 223.03 81.2495L222.5 81.2395C222.242 81.2343 221.996 81.1273 221.816 80.9419C221.636 80.7566 221.537 80.5077 221.54 80.2495L221.58 73.2795C221.586 72.0728 220.986 71.4728 219.78 71.4795H219.27C217.603 71.4795 216.78 72.3128 216.8 73.9795L216.88 80.4495C216.881 80.5575 216.861 80.6647 216.819 80.7645C216.777 80.8642 216.716 80.9543 216.638 81.0293C216.56 81.1043 216.468 81.1625 216.367 81.2004C216.266 81.2383 216.158 81.255 216.05 81.2495L215.3 81.2195C214.713 81.1928 214.423 80.8862 214.43 80.2995L214.49 69.9695C214.49 69.5495 214.7 69.3262 215.12 69.2995C215.76 69.2528 216.306 69.4528 216.76 69.8995C217 70.1328 217.26 70.1595 217.54 69.9795Z" fill="#232223"/>
<path d="M233.58 76.7399L235.67 70.2399C235.85 69.6866 236.227 69.3899 236.8 69.3499L237.68 69.2899C238.307 69.2499 238.507 69.5232 238.28 70.1099C236.62 74.4899 234.957 78.9532 233.29 83.4999C232.87 84.6599 230.53 86.6699 229.23 85.3599C229.01 85.1399 228.914 84.8732 228.94 84.5599C228.98 84.0466 229.25 83.7266 229.75 83.5999C231.65 83.1299 232.29 80.9399 231.64 79.2499C230.474 76.2032 229.36 73.2099 228.3 70.2699C228.034 69.5299 228.294 69.1899 229.08 69.2499L229.77 69.3099C229.99 69.3272 230.2 69.4084 230.374 69.5435C230.548 69.6785 230.679 69.8615 230.75 70.0699L232.96 76.7399C233.174 77.3733 233.38 77.3733 233.58 76.7399Z" fill="#232223"/>
</g>
<defs>
<clipPath id="clip0_87_302">
<rect width="254" height="86" fill="white"/>
</clipPath>
</defs>
</svg>
