<svg width="294" height="106" viewBox="0 0 294 106" fill="none" xmlns="http://www.w3.org/2000/svg">
<g clip-path="url(#clip0_70_182)">
<path d="M91.6793 0H93.3747C104.459 2.67944 113.004 8.33278 117.199 19.1782C117.316 19.4791 117.535 19.6296 117.855 19.6296H120.854C121.035 19.6302 121.21 19.5626 121.343 19.4405C121.476 19.3184 121.557 19.1509 121.569 18.972C121.785 16.057 122.246 13.0439 125.94 13.0243C132.963 12.9915 139.987 12.9686 147.01 12.9556C151.175 12.9457 150.509 16.1257 150.254 19.1487C150.228 19.4693 150.375 19.6296 150.695 19.6296H157.976C158.27 19.6296 158.437 19.4824 158.476 19.188L159.701 9.30444C159.785 8.63366 160.11 8.01638 160.617 7.5683C161.124 7.12021 161.778 6.87207 162.455 6.87037H179.076C179.507 6.87037 179.703 6.65445 179.664 6.22259C179.468 3.88667 180.663 2.1887 182.986 2.19852C188.415 2.21815 193.906 2.21815 199.46 2.19852C201.884 2.18543 202.975 3.38611 202.733 5.80056L201.381 19.3352C201.354 19.6296 201.485 19.7867 201.773 19.8063C203.445 19.9502 205.245 20.0353 207.172 20.0615C208.936 20.0811 210.671 20.4181 212.376 21.0724C218.825 23.5457 222.617 28.4433 223.754 35.7652C223.767 35.8454 223.799 35.9213 223.848 35.9863C223.896 36.0513 223.96 36.1034 224.033 36.1382C224.107 36.173 224.187 36.1894 224.268 36.186C224.35 36.1825 224.429 36.1594 224.499 36.1185C230.075 32.8993 238.797 34.0476 238.248 42.4393C238.111 44.5265 237.872 46.8003 237.533 49.2606C236.445 57.1615 231.604 61.7744 222.97 59.3993C222.598 59.2946 222.372 59.432 222.294 59.8115L221.304 64.4244C220.86 66.4921 219.586 67.5848 217.482 67.7026C217.136 67.7222 216.802 67.6633 216.482 67.5259C214.921 66.8585 214.277 65.684 214.552 64.0024C215.773 56.517 216.874 49.483 217.854 42.9006C218.279 40.015 217.992 37.0444 216.992 33.9887C215.483 29.3659 211.21 25.9111 206.3 26.2056C203.439 26.3691 200.629 26.3135 197.872 26.0387C196.985 25.947 196.171 25.5072 195.607 24.8156C195.043 24.124 194.776 23.2369 194.864 22.3483L196.177 9.0787C196.229 8.58796 196.007 8.34259 195.51 8.34259H186.132C185.759 8.34259 185.554 8.52907 185.514 8.90204L184.035 22.898C183.825 24.9067 182.712 25.9209 180.693 25.9406C180.379 25.9406 180.072 25.8653 179.772 25.7148C178.4 25.0016 177.795 23.8762 177.959 22.3385L178.86 13.6524C178.906 13.2206 178.71 13.0046 178.272 13.0046H166.042C165.669 13.0046 165.46 13.1911 165.415 13.5641L164.268 22.9078C164.02 24.9493 162.873 25.9798 160.828 25.9994C155.667 26.0387 150.999 26.0223 146.824 25.9504C143.139 25.8915 143.953 22.1226 144.109 19.718C144.113 19.6433 144.102 19.5687 144.076 19.4986C144.051 19.4285 144.011 19.3643 143.959 19.3101C143.908 19.2559 143.846 19.2128 143.778 19.1834C143.709 19.1539 143.635 19.1388 143.561 19.1389H128.351C127.913 19.1389 127.645 19.3548 127.547 19.7867C126.91 22.6624 127.165 25.9209 123.137 25.9994C120.008 26.0583 117.114 26.0256 114.455 25.9013C113.249 25.8522 112.377 24.9002 112.112 23.7715C111.1 19.5904 109.019 15.9818 105.87 12.9457C103.949 11.0907 101.342 9.92278 99.0097 8.61741C96.4225 7.155 93.5021 6.67407 90.7091 5.59444C90.3824 5.47012 90.1538 5.24765 90.0231 4.92704C89.0758 2.71543 89.6279 1.07309 91.6793 0ZM230.163 52.0382C231.065 47.7458 231.496 44.7032 231.457 42.9104C231.417 41.183 230.536 40.3258 228.811 40.3389C228.38 40.3389 227.958 40.3389 227.547 40.3389C225.9 40.352 224.959 41.1764 224.724 42.8122L223.333 52.5485C223.13 53.9749 223.747 54.6358 225.185 54.5311C226.132 54.4591 226.906 54.4003 227.507 54.3545C228.977 54.2498 229.863 53.4777 230.163 52.0382Z" fill="black"/>
<path d="M216.61 0H218.747C221.125 0.667407 223.411 1.44932 225.607 2.34574C233.434 5.53883 238.957 11.0417 242.178 18.8543C242.243 19.0108 242.352 19.1447 242.494 19.2391C242.635 19.3334 242.801 19.384 242.972 19.3843H272.754C274.845 19.3843 275.907 20.4312 275.939 22.525C275.939 22.7802 275.917 23.0288 275.871 23.2709C275.544 24.9133 274.545 25.7377 272.872 25.7443C262.785 25.7704 252.057 25.7704 240.689 25.7443C238.801 25.7377 237.602 24.8904 237.092 23.2022C234.211 13.7604 226.185 7.33167 216.061 5.86926C215.868 5.84217 215.684 5.76915 215.526 5.65638C215.367 5.54362 215.238 5.39444 215.15 5.22148C213.987 2.94444 214.474 1.20395 216.61 0Z" fill="black"/>
<path d="M99.0394 21.9462C96.0308 18.5797 92.2676 16.9014 87.9556 15.9199C86.1655 15.5142 85.3912 14.4019 85.633 12.5828C85.6591 12.3865 85.7016 12.1968 85.7604 12.0136C86.3288 10.2404 87.5211 9.55988 89.3374 9.9721C98.324 12.0332 106.086 17.3136 108.183 26.6867C108.947 30.1023 104.292 31.6727 102.695 28.738C101.411 26.3923 100.911 24.0269 99.0394 21.9462Z" fill="black"/>
<path d="M226.194 25.3124C224.008 19.8455 218.285 17.1464 212.944 15.9C211.245 15.5008 210.474 14.431 210.631 12.6905C210.657 12.4092 210.713 12.1409 210.798 11.8857C211.373 10.2368 212.513 9.5923 214.218 9.95218C223.038 11.8268 230.937 17.1464 233.181 26.3822C233.743 28.6919 232.789 29.9646 230.319 30.2001C227.752 30.4455 226.938 27.1772 226.194 25.3124Z" fill="black"/>
<path d="M97.3447 59.821L96.2961 64.7873C95.8519 66.8746 94.5648 67.8233 92.4349 67.6336C92.1932 67.6074 91.9482 67.5616 91.6999 67.4962C90.0143 67.0316 89.312 65.9324 89.5929 64.1984C90.8343 56.5952 91.9515 49.2635 92.9445 42.2034C93.1275 40.8948 93.1242 39.4356 92.9347 37.826C92.1997 31.6819 89.0637 26.2249 82.5075 26.2347C57.9618 26.2609 33.7754 26.2641 9.94833 26.2445C7.82499 26.238 6.78946 25.1714 6.84173 23.0449L6.85153 22.6621C6.89726 20.83 7.83479 19.9107 9.66413 19.9041C34.7129 19.8518 59.1901 19.8551 83.0955 19.914C91.9057 19.9336 97.7269 27.3928 98.8833 35.7943C98.8939 35.8746 98.9244 35.9508 98.9722 36.0161C99.02 36.0815 99.0836 36.134 99.1573 36.1689C99.231 36.2039 99.3125 36.2203 99.3947 36.2165C99.4768 36.2128 99.557 36.1892 99.6281 36.1477C102.241 34.5904 105.015 34.0996 107.948 34.6754C114.838 36.0299 113.27 44.029 112.662 48.7891C112.355 51.2167 111.767 53.2385 110.898 54.8547C108.376 59.5396 104.113 61.0413 98.1091 59.3597C97.691 59.2419 97.4362 59.3957 97.3447 59.821ZM103.842 40.3386C103.391 40.3386 102.957 40.3386 102.539 40.3386C100.879 40.3386 99.9352 41.1598 99.7065 42.8021L98.3541 52.558C98.1777 53.8274 98.7265 54.4621 100.001 54.4621L102.137 54.4719C103.666 54.4785 104.639 53.7456 105.057 52.2734C105.867 49.4206 106.331 46.3485 106.449 43.0573C106.514 41.2448 105.645 40.3386 103.842 40.3386Z" fill="black"/>
<path d="M294 32.055V36.3048C293.687 39.0399 293.328 41.7455 292.922 44.4217C292.439 47.5951 291.221 50.8667 289.267 54.2365C286.415 59.1439 280.682 60.94 275.322 59.5659C267.06 57.4558 267.766 46.5711 271.549 41.0945C275.096 35.9515 280.976 34.9896 286.454 37.4433C286.519 37.4716 286.589 37.4858 286.66 37.4849C286.73 37.484 286.8 37.4681 286.863 37.4383C286.926 37.4084 286.982 37.3654 287.027 37.312C287.071 37.2587 287.103 37.1964 287.121 37.1293C287.915 34.3321 287.973 29.6602 285.69 27.4519C284.494 26.2937 282.515 26.4017 280.966 26.1367C280.707 26.0885 280.465 25.9722 280.266 25.7998C280.066 25.6274 279.915 25.4049 279.83 25.1552C278.644 21.7102 280.927 20.2674 284.034 20.1791C290.404 20.009 293.726 23.9676 294 32.055ZM286.268 44.0193C286.281 43.7837 286.187 43.6038 285.984 43.4795C275.096 37.1783 272.891 52.6367 278.82 54.0206C284.916 55.4339 285.984 48.063 286.268 44.0193Z" fill="black"/>
<path d="M34.5655 36.3245C38.4071 34.499 42.5035 33.3016 45.8943 36.2755C46.0282 36.3949 46.1969 36.4686 46.3764 36.4863C46.5558 36.5039 46.7369 36.4645 46.8939 36.3736C53.3031 32.6636 63.4853 33.7236 62.2113 43.666C61.7866 46.9245 61.3325 50.2027 60.8491 53.5005C60.6923 54.5539 60.8687 55.398 61.3783 56.0327C61.5593 56.26 61.692 56.522 61.7682 56.8026C61.8443 57.0832 61.8623 57.3764 61.821 57.6642C61.7797 57.952 61.6799 58.2283 61.528 58.476C61.376 58.7238 61.1749 58.9377 60.9373 59.1047C57.5857 61.4897 53.2149 60.3218 53.8617 55.4438C54.3517 51.7403 54.8711 47.7228 55.4199 43.3912C55.6877 41.2254 54.7371 40.221 52.5681 40.3781C52.3329 40.3911 52.2055 40.401 52.1859 40.4075C50.0299 40.5645 48.8473 41.6311 48.6383 43.6071C48.1287 48.279 47.5113 52.8919 46.7861 57.446C46.4921 59.2585 45.4304 60.1484 43.6011 60.1156L42.9935 60.1058C40.8179 60.0666 39.8738 58.964 40.1613 56.7982L42.0527 42.7925C42.2879 41.0127 41.5137 40.2112 39.7301 40.3879C39.1682 40.4402 38.6031 40.4926 38.0347 40.5449C36.4471 40.7019 35.5422 41.5755 35.3201 43.1655L33.3601 57.1614C33.0334 59.4777 31.7169 60.4559 29.4107 60.096L28.7443 59.9881C27.1109 59.7329 26.3988 58.7874 26.6079 57.1516C27.2089 52.3161 27.9047 47.304 28.6953 42.1153C28.8815 40.9179 28.5581 40.1523 28.0779 39.1021C27.9015 38.7226 27.8884 38.3398 28.0387 37.9538C28.7541 36.1184 31.7333 34.126 33.4091 36.0792C33.7292 36.4587 34.1147 36.5405 34.5655 36.3245Z" fill="black"/>
<path d="M74.7051 50.1537C73.7251 49.9574 73.2809 50.3565 73.3723 51.3511C73.405 51.7502 73.4507 52.1461 73.5095 52.5387C73.6729 53.6248 74.3001 54.2464 75.3911 54.4035C76.7697 54.5998 78.1318 54.4983 79.4777 54.0992C81.3495 53.5496 84.6717 52.3129 85.6125 54.8549C87.0825 58.8987 78.1841 60.0568 75.9693 60.2335C70.5499 60.6849 65.8361 57.0633 66.7181 51.2431C67.3257 47.2975 67.1885 42.4588 69.3445 39.1022C73.3429 32.8992 88.2585 31.7312 88.0723 41.9485C87.9351 49.3685 80.5851 51.3609 74.7051 50.1537ZM75.9007 45.2364C78.8015 45.8646 81.9473 44.8733 81.2221 41.1535C81.1832 40.9484 81.094 40.756 80.9624 40.5933C80.8307 40.4307 80.6607 40.3028 80.4675 40.2211C76.9395 38.7587 74.3131 41.2124 74.3621 44.7064C74.3686 45.099 74.5647 45.2659 74.9501 45.207C75.2703 45.1612 75.5871 45.171 75.9007 45.2364Z" fill="black"/>
<path d="M124.931 50.1931C123.631 49.8986 123.082 50.4123 123.285 51.734C123.337 52.0808 123.373 52.3262 123.392 52.4701C123.595 53.7918 124.363 54.4592 125.695 54.4723C127.819 54.4985 129.86 54.1583 131.82 53.4516C132.761 53.1113 133.686 53.1964 134.594 53.7068C135.041 53.9563 135.377 54.3675 135.531 54.8564C135.686 55.3453 135.649 55.875 135.427 56.3372C134.006 59.3012 129.547 59.8705 126.499 60.1846C121.207 60.7342 115.944 57.7799 116.552 51.8812C116.905 48.446 117.369 45.217 117.944 42.194C118.443 39.6029 120.541 36.9431 122.961 35.8438C127.851 33.606 137.132 33.292 137.896 40.5647C138.314 44.6084 137.04 47.3893 134.074 48.9073C131.043 50.4581 127.995 50.8867 124.931 50.1931ZM131.174 41.4481C131.144 41.128 131.022 40.824 130.821 40.5743C130.62 40.3245 130.351 40.1402 130.047 40.0446C127.374 39.207 125.486 40.2572 124.382 43.1951C123.873 44.543 124.336 45.2628 125.774 45.3544C128.616 45.5507 131.497 45.3838 131.174 41.4481Z" fill="black"/>
<path d="M158.602 57.2788C154.78 60.5667 148.391 61.3617 144.039 58.8295C138.816 55.7771 140.854 49.5545 141.403 44.706C141.962 39.7593 144.52 36.1573 149.41 34.9697C155.319 33.5367 163.228 34.8617 162.885 42.4289C162.774 44.9743 162.483 47.7191 162.013 50.6636C161.555 53.5099 160.418 55.7149 158.602 57.2788ZM156.122 44.2655C156.26 43.3624 156.034 42.4413 155.494 41.705C154.954 40.9686 154.144 40.4773 153.242 40.3391L152.39 40.2084C151.488 40.0702 150.568 40.2964 149.833 40.8373C149.098 41.3782 148.607 42.1895 148.469 43.0926L147.343 50.4661C147.205 51.3692 147.431 52.2903 147.971 53.0266C148.511 53.763 149.321 54.2543 150.223 54.3925L151.075 54.5231C151.977 54.6614 152.897 54.4352 153.632 53.8943C154.367 53.3534 154.858 52.5421 154.996 51.639L156.122 44.2655Z" fill="black"/>
<path d="M191.316 41.2317C194.05 32.1236 213.248 31.1323 211.935 43.6756C211.641 46.4761 211.278 49.1032 210.847 51.5569C209.495 59.1438 200.704 61.8919 194.285 59.3989C190.953 58.0968 189.408 55.5613 189.65 51.7925C189.93 47.5263 190.486 44.006 191.316 41.2317ZM205.223 44.256C205.361 43.3528 205.135 42.4317 204.595 41.6954C204.055 40.9591 203.244 40.4677 202.343 40.3295L201.49 40.1989C200.588 40.0607 199.669 40.287 198.933 40.8279C198.198 41.3688 197.708 42.18 197.57 43.0832L196.44 50.476C196.302 51.3792 196.528 52.3002 197.068 53.0366C197.608 53.7729 198.418 54.2642 199.32 54.4024L200.172 54.5331C201.074 54.6712 201.994 54.445 202.729 53.9041C203.464 53.3632 203.955 52.5519 204.093 51.6488L205.223 44.256Z" fill="black"/>
<path d="M242.756 42.6552C244.039 35.932 251.242 33.5274 257.309 34.7052C262.097 35.6343 264.257 38.6671 263.786 43.8035C263.518 46.7414 263.126 49.4732 262.61 51.9989C260.425 62.6676 240.384 63.8257 241.54 51.3315C241.815 48.3412 242.22 45.4491 242.756 42.6552ZM257.095 44.2466C257.232 43.3486 257.008 42.4327 256.471 41.7006C255.934 40.9684 255.128 40.4799 254.232 40.3425L253.34 40.2059C252.444 40.0685 251.529 40.2935 250.798 40.8313C250.067 41.3691 249.58 42.1758 249.442 43.0738L248.31 50.486C248.173 51.3841 248.397 52.2999 248.934 53.032C249.471 53.7642 250.277 54.2527 251.173 54.3901L252.065 54.5267C252.961 54.6641 253.876 54.4391 254.607 53.9013C255.338 53.3635 255.826 52.5568 255.963 51.6588L257.095 44.2466Z" fill="black"/>
<path d="M10.0253 50.8504C9.28053 55.8462 15.2095 54.4819 17.7379 53.4219C18.1091 53.2681 18.5138 53.2238 18.9041 53.2943C22.3831 53.9126 21.2561 57.6815 18.9237 58.663C12.4263 61.4112 2.02853 61.1658 3.21433 50.9289C3.55406 48.0041 3.96239 45.2723 4.43933 42.7336C5.86033 35.1173 14.7391 33.4291 21.0111 35.5491C21.4907 35.7155 21.9128 36.0189 22.2263 36.4226C23.3762 37.908 23.6996 39.0726 23.1965 39.9167C22.3407 41.3693 21.1157 41.8208 19.5215 41.2712C15.7877 39.9952 11.3777 38.9254 10.8093 44.4708C10.5741 46.7544 10.3128 48.8809 10.0253 50.8504Z" fill="black"/>
<path d="M173.587 53.1078C174.772 56.1013 179.241 54.0893 181.495 53.5887C184.621 52.8919 186.013 56.6902 183.485 58.398C180.368 60.5082 175.39 60.675 172.028 59.8506C164.718 58.0545 165.531 48.8383 171.578 46.1589C173.838 45.1578 176.226 44.2614 178.741 43.4696C178.993 43.3894 179.221 43.2463 179.402 43.0538C179.583 42.8614 179.713 42.626 179.778 42.3701C179.842 42.1143 179.841 41.8465 179.773 41.5923C179.704 41.338 179.572 41.1058 179.388 40.9178C178.787 40.3093 178.036 40.0803 177.134 40.2308C175.331 40.5187 173.642 40.8327 172.068 41.173C171.783 41.2337 171.489 41.2339 171.204 41.1734C170.919 41.113 170.65 40.9933 170.415 40.8221C170.179 40.6509 169.982 40.4321 169.836 40.1797C169.69 39.9273 169.599 39.6471 169.569 39.3572C169.379 37.5644 170.248 36.3375 172.175 35.6767C177.242 33.9296 186.395 33.7137 186.493 41.1435C186.545 44.7619 184.912 47.2058 181.593 48.4752C179.306 49.352 176.958 50.1993 174.547 51.0172C174.345 51.0868 174.158 51.1968 174 51.3407C173.841 51.4847 173.713 51.6595 173.623 51.8548C173.533 52.05 173.484 52.2617 173.478 52.477C173.471 52.6923 173.508 52.9069 173.587 53.1078Z" fill="black"/>
<path d="M0 74.5144V72.8754C0.457333 71.4032 1.60067 70.667 3.43 70.667C98.0849 70.667 192.769 70.6638 287.483 70.6572C289.691 70.6572 290.717 71.763 290.56 73.9746L290.531 74.2691C290.484 74.9584 290.176 75.6041 289.671 76.0759C289.165 76.5477 288.499 76.8104 287.806 76.8111C192.903 76.8046 98.1111 76.8046 3.43 76.8111C1.58107 76.8111 0.437733 76.0456 0 74.5144Z" fill="black"/>
<path d="M17.5029 100.287L16.9247 104.557C16.8463 105.159 16.5131 105.535 15.9251 105.686C15.7879 105.725 15.654 105.728 15.5233 105.695C15.0072 105.591 14.7851 105.277 14.8569 104.753C15.5168 100.022 16.1832 95.2818 16.8561 90.5315C16.9933 89.5696 16.9443 88.6176 16.7091 87.6754C16.6753 87.5329 16.6816 87.3836 16.7271 87.2444C16.7727 87.1051 16.8558 86.9815 16.9669 86.8875C17.0781 86.7936 17.2129 86.733 17.3562 86.7126C17.4994 86.6923 17.6453 86.713 17.7773 86.7724C18.5123 87.1061 19.0513 87.2926 19.8157 86.8803C23.0399 85.1628 26.5777 86.2718 26.2739 90.5315C25.9309 95.3015 25.3527 101.966 18.2281 99.8163C17.8035 99.6854 17.5617 99.8424 17.5029 100.287ZM18.0615 96.3222C18.0215 96.6281 18.0555 96.9392 18.1607 97.2292C18.2659 97.5191 18.4392 97.7795 18.6659 97.9884C18.8927 98.1972 19.1663 98.3483 19.4636 98.429C19.761 98.5097 20.0733 98.5176 20.3743 98.452L21.9031 98.1183C22.2829 98.0354 22.6286 97.839 22.8946 97.5551C23.1605 97.2712 23.3342 96.9132 23.3927 96.5283L24.3531 90.1781C24.3992 89.8712 24.3705 89.5577 24.2694 89.2643C24.1683 88.971 23.9979 88.7064 23.7726 88.4933C23.5473 88.2802 23.2739 88.1249 22.9756 88.0406C22.6774 87.9562 22.3632 87.9454 22.0599 88.0091L20.4135 88.3526C20.0264 88.4362 19.6745 88.6376 19.4061 88.9293C19.1377 89.221 18.9658 89.5886 18.9141 89.9818L18.0615 96.3222Z" fill="black"/>
<path d="M30.4877 99.8655C26.5775 99.0901 28.4003 92.151 29.0569 89.874C29.6971 87.6428 31.2749 86.4061 33.7903 86.164C39.7487 85.6046 38.7393 91.042 38.1415 94.6734C37.4228 99.0181 34.8715 100.749 30.4877 99.8655ZM36.6585 90.9236C36.7534 90.2877 36.5922 89.6401 36.2103 89.1233C35.8285 88.6065 35.2572 88.2627 34.6223 88.1677L33.6531 88.0226C33.0182 87.9276 32.3716 88.0891 31.8555 88.4715C31.3395 88.8539 30.9962 89.426 30.9013 90.0618L30.0988 95.4396C30.0039 96.0755 30.1652 96.7231 30.547 97.2399C30.9289 97.7567 31.5001 98.1005 32.1351 98.1955L33.1043 98.3405C33.7392 98.4356 34.3858 98.2741 34.9018 97.8917C35.4179 97.5093 35.7611 96.9372 35.856 96.3013L36.6585 90.9236Z" fill="black"/>
<path d="M43.5034 91.7385L42.4646 99.0996C42.4327 99.3272 42.3177 99.5366 42.1412 99.6885C41.6708 100.075 41.2135 100.179 40.7692 100.003C40.6433 99.9496 40.5384 99.8564 40.471 99.7374C40.4036 99.6184 40.3775 99.4804 40.3968 99.345L41.8668 89.01C42.4548 84.927 43.5132 84.8027 45.042 88.637L47.3842 94.4866C47.4034 94.5372 47.4361 94.5815 47.4787 94.6146C47.5214 94.6478 47.5723 94.6686 47.626 94.6747C47.6796 94.6807 47.7339 94.6719 47.7829 94.6491C47.8319 94.6263 47.8737 94.5905 47.9036 94.5455C49.6872 91.9151 51.4676 89.3077 53.2446 86.7231C53.4341 86.4483 53.6791 86.2716 53.9796 86.1931C54.1422 86.1528 54.3123 86.1528 54.4747 86.1932C54.6372 86.2336 54.7871 86.3131 54.9111 86.4247C55.0352 86.5363 55.1295 86.6766 55.1859 86.8331C55.2422 86.9895 55.2587 87.1574 55.234 87.3218L53.5778 98.9818C53.5478 99.2007 53.4616 99.408 53.3277 99.5835C53.1937 99.759 53.0165 99.8966 52.8134 99.9829C52.5913 100.081 52.3626 100.12 52.1274 100.101C52.0356 100.096 51.9457 100.073 51.8636 100.031C51.7814 99.989 51.7089 99.9301 51.6507 99.858C51.5925 99.7858 51.5499 99.702 51.5257 99.6119C51.5015 99.5218 51.4961 99.4275 51.51 99.3351L52.5684 92.0035C52.6991 91.1267 52.5162 91.0547 52.0196 91.7875L48.3348 97.2053C48.2117 97.3867 48.0419 97.5314 47.8434 97.6241C47.645 97.7168 47.4252 97.754 47.2073 97.7319C46.9894 97.7098 46.7815 97.6291 46.6057 97.4984C46.4298 97.3677 46.2925 97.1918 46.2082 96.9894L44.013 91.6698C43.7648 91.0613 43.5949 91.0842 43.5034 91.7385Z" fill="black"/>
<path d="M65.5032 86.4785C67.2215 87.0347 68.0349 88.327 67.9434 90.3554C67.7376 95.0174 67.2966 100.239 61.0638 100.131C58.3296 100.082 57.036 98.0502 57.33 95.4591C57.7677 91.5855 58.212 89.3412 58.6628 88.7261C60.4333 86.3182 62.7135 85.569 65.5032 86.4785ZM65.9236 90.8948C66.0147 90.2768 65.857 89.6478 65.4851 89.1463C65.1131 88.6447 64.5575 88.3117 63.9404 88.2205L62.8934 88.0656C62.5878 88.0204 62.2764 88.0359 61.9768 88.1113C61.6772 88.1866 61.3954 88.3203 61.1474 88.5048C60.8995 88.6892 60.6902 88.9208 60.5316 89.1862C60.3729 89.4516 60.2681 89.7458 60.223 90.0518L59.4184 95.5085C59.3273 96.1266 59.485 96.7555 59.857 97.2571C60.2289 97.7586 60.7845 98.0916 61.4016 98.1829L62.4487 98.3378C62.7542 98.383 63.0657 98.3674 63.3652 98.2921C63.6648 98.2167 63.9466 98.083 64.1946 97.8986C64.4426 97.7141 64.6518 97.4826 64.8105 97.2171C64.9691 96.9517 65.0739 96.6576 65.1191 96.3515L65.9236 90.8948Z" fill="black"/>
<path d="M94.2164 87.3418C95.0134 86.6351 95.9412 86.2523 96.9996 86.1935C100.58 85.9841 102.076 87.6624 101.488 91.2285C101.018 94.0813 100.763 96.8065 100.724 99.4042C100.717 99.8818 100.479 100.111 100.008 100.091L99.5966 100.072C99.4352 100.065 99.2771 100.024 99.1321 99.9532C98.9871 99.8819 98.8585 99.7813 98.7544 99.6576C98.6503 99.534 98.573 99.39 98.5273 99.2349C98.4817 99.0798 98.4687 98.9168 98.4892 98.7564L99.5378 90.2764C99.5719 90.0044 99.545 89.7283 99.4592 89.4678C99.3734 89.2074 99.2307 88.9691 99.0414 88.7702C98.8521 88.5712 98.6209 88.4165 98.3644 88.3171C98.108 88.2178 97.8326 88.1763 97.5582 88.1957C97.3034 88.2153 97.0845 88.2317 96.9016 88.2448C95.3597 88.356 94.481 89.1772 94.2654 90.7083L93.0894 99.1785C93.0044 99.7739 92.6647 100.072 92.0702 100.072H91.639C91.5517 100.071 91.4655 100.052 91.3862 100.015C91.3069 99.9788 91.2361 99.9258 91.1787 99.86C91.1213 99.7941 91.0785 99.7168 91.0531 99.6332C91.0277 99.5496 91.0203 99.4615 91.0314 99.3748L92.2564 90.4138C92.4916 88.693 91.7468 87.9241 90.022 88.1073L89.336 88.1859C88.0032 88.3233 87.242 89.0594 87.0526 90.3942L85.8374 98.9625C85.7524 99.5841 85.3996 99.9636 84.779 100.101C84.4915 100.16 84.2204 100.088 83.9656 99.8851C83.8827 99.8229 83.818 99.7391 83.7784 99.6424C83.7387 99.5457 83.7255 99.4397 83.7402 99.3355L85.0436 89.766C85.1089 89.2622 85.0534 88.7748 84.877 88.3036C84.681 87.7933 84.7332 87.3287 85.0338 86.9099C85.0883 86.8332 85.1585 86.7689 85.2396 86.7213C85.3207 86.6736 85.411 86.6437 85.5045 86.6335C85.598 86.6233 85.6926 86.6331 85.782 86.6621C85.8715 86.6911 85.9538 86.7388 86.0236 86.802C86.2261 86.9852 86.4613 87.0866 86.7292 87.1062C87.0302 87.1318 87.3319 87.0741 87.6014 86.9394C89.2772 86.0953 92.0898 85.4868 93.452 87.2731C93.6806 87.5675 93.9354 87.5904 94.2164 87.3418Z" fill="black"/>
<path d="M106.233 95.8804C106.272 96.0702 106.308 96.2599 106.341 96.4497C106.583 97.778 107.38 98.4126 108.732 98.3538C109.882 98.308 110.947 98.0364 111.927 97.5391C112.358 97.3167 112.61 97.4475 112.681 97.9317L112.75 98.4028C112.809 98.8281 112.649 99.1422 112.27 99.3451C109.124 101.072 103.959 100.474 104.214 95.8215C104.459 91.4736 105.057 85.673 110.996 86.2128C113.106 86.4091 114.181 87.5509 114.22 89.6382C114.292 93.3286 112.1 94.9088 107.644 94.3788C106.501 94.2414 106.03 94.7419 106.233 95.8804ZM106.703 92.2489C106.697 92.4714 106.801 92.6023 107.017 92.6415C109.173 93.0243 112.005 93.0047 112.191 90.0602C112.207 89.811 112.172 89.5612 112.089 89.3257C112.006 89.0902 111.875 88.8738 111.706 88.6896C111.537 88.5054 111.332 88.3571 111.104 88.2536C110.876 88.1502 110.629 88.0936 110.378 88.0875C108.026 88.0286 106.801 89.4157 106.703 92.2489Z" fill="black"/>
<path d="M118.021 100.288L117.326 104.999C117.305 105.136 117.254 105.266 117.177 105.381C117.1 105.496 116.998 105.592 116.88 105.663C116.762 105.733 116.629 105.776 116.493 105.789C116.356 105.801 116.219 105.783 116.091 105.735L115.699 105.588C115.568 105.538 115.458 105.445 115.387 105.326C115.315 105.206 115.287 105.067 115.307 104.93L117.443 89.8153C117.489 89.4686 117.466 89.125 117.375 88.7848C117.231 88.2482 117.195 87.7182 117.267 87.1948C117.283 87.081 117.328 86.9734 117.398 86.8827C117.469 86.7919 117.561 86.7212 117.667 86.6775C117.773 86.6339 117.889 86.6188 118.003 86.6337C118.116 86.6487 118.224 86.6933 118.315 86.7629C118.923 87.2144 119.567 87.2471 120.246 86.8611C123 85.3005 126.763 86.0268 126.734 89.8742C126.704 94.6737 125.969 101.966 118.756 99.8166C118.332 99.6858 118.087 99.8428 118.021 100.288ZM120.354 98.315C120.419 98.3084 120.671 98.2986 121.108 98.2855C122.52 98.2397 123.415 97.5363 123.794 96.1753C124.329 94.2189 124.614 92.2167 124.646 90.1687C124.666 88.9058 124.045 88.2352 122.784 88.1566C122.36 88.1305 121.925 88.137 121.481 88.1763C120.239 88.2875 119.55 88.9615 119.413 90.1981C119.204 92.1087 118.9 94.1306 118.502 96.2637C118.234 97.6836 118.851 98.3673 120.354 98.315Z" fill="black"/>
<path d="M131.447 90.3061C131.065 92.1317 130.065 95.8613 131.153 97.6083C131.336 97.9028 131.601 98.0729 131.947 98.1187C133.208 98.2823 134.377 98.1547 135.455 97.7359C135.671 97.6509 135.887 97.6509 136.102 97.7359C136.324 97.8275 136.462 97.9878 136.514 98.2168C136.599 98.5636 136.504 98.845 136.23 99.0609C134.034 100.837 129.076 100.788 128.703 97.0979C128.566 95.75 128.654 94.0913 128.968 92.1218C129.654 87.7641 132.114 85.1631 136.945 86.4292C137.11 86.473 137.264 86.5494 137.399 86.654C137.533 86.7585 137.646 86.889 137.729 87.0378C138.108 87.7052 138.036 88.1959 137.513 88.51C137.148 88.7259 136.775 88.7423 136.396 88.5591C134.613 87.6954 131.918 88.0683 131.447 90.3061Z" fill="black"/>
<path d="M142.451 90.3749C142.412 92.737 143.147 92.9922 144.656 91.1405L148.665 86.2331C148.724 86.1618 148.799 86.1052 148.883 86.0679C148.968 86.0305 149.06 86.0136 149.152 86.0184C149.243 86.0232 149.332 86.0495 149.411 86.0954C149.49 86.1412 149.557 86.2052 149.606 86.2822L149.762 86.5373C150.037 86.9757 150.011 87.3912 149.684 87.7838L145.578 92.8188C145.343 93.1067 145.313 93.4143 145.49 93.7414L148.086 98.5899C148.367 99.1134 148.276 99.5616 147.812 99.9346C147.616 100.092 147.381 100.17 147.106 100.17C146.767 100.17 146.519 100.02 146.362 99.7186L143.961 95.1547C142.876 93.0936 142.157 93.2114 141.805 95.5081L141.276 98.9629C141.184 99.5452 140.854 99.9051 140.286 100.043C140.05 100.101 139.815 100.101 139.58 100.043C139.247 99.9575 139.103 99.7415 139.149 99.3947L140.864 87.2636C140.955 86.642 141.311 86.3738 141.932 86.4588L142.344 86.5177C142.821 86.5766 143.013 86.8449 142.922 87.3225C142.615 88.8864 142.458 89.9038 142.451 90.3749Z" fill="black"/>
<path d="M157.388 99.1197C155.271 100.445 151.008 100.877 150.714 97.4413C150.489 94.811 150.851 90.0999 152.645 87.9799C155.183 84.9765 161.034 85.2808 160.583 90.5415C160.393 92.8251 160.103 95.0858 159.711 97.3236C159.681 97.492 159.698 97.6653 159.761 97.8246C159.823 97.9838 159.928 98.1229 160.063 98.2265L160.671 98.678C161.043 98.9659 161.073 99.2833 160.759 99.63C160.034 100.445 158.721 100.16 158.152 99.2865C157.95 98.979 157.695 98.9234 157.388 99.1197ZM152.508 96.2537C152.461 96.5752 152.498 96.9033 152.615 97.2063C152.732 97.5093 152.924 97.7772 153.174 97.9842C153.424 98.1912 153.723 98.3303 154.042 98.3882C154.362 98.4461 154.69 98.4209 154.997 98.3149L156.545 97.7849C156.875 97.6727 157.168 97.4712 157.391 97.2027C157.615 96.9342 157.759 96.6092 157.809 96.2636L158.701 90.1097C158.748 89.7962 158.715 89.476 158.606 89.1784C158.497 88.8808 158.315 88.6153 158.078 88.4063C157.84 88.1973 157.553 88.0514 157.244 87.9821C156.935 87.9127 156.614 87.9221 156.31 88.0093L154.781 88.4412C154.429 88.5399 154.112 88.739 153.87 89.0142C153.629 89.2895 153.472 89.6291 153.419 89.9919L152.508 96.2537Z" fill="black"/>
<path d="M187.856 90.384C187.941 92.576 188.698 92.8214 190.129 91.1201C191.371 89.6479 192.739 88.0187 194.235 86.2324C194.276 86.1836 194.326 86.1436 194.382 86.1146C194.438 86.0856 194.5 86.0683 194.563 86.0637C194.626 86.0592 194.69 86.0674 194.75 86.0879C194.809 86.1085 194.865 86.1409 194.912 86.1833L195.137 86.3894C195.32 86.5535 195.432 86.7821 195.45 87.0273C195.468 87.2724 195.391 87.5151 195.235 87.7046L191.129 92.7592C190.861 93.0864 190.825 93.4364 191.021 93.8094L193.579 98.6187C193.643 98.7407 193.67 98.8771 193.657 99.0113C193.585 99.9731 193.144 100.31 192.334 100.022C192.07 99.9276 191.852 99.7341 191.727 99.4824C190.877 97.7222 189.982 95.9752 189.041 94.2413C188.885 93.9468 188.656 93.7342 188.355 93.6033C188.268 93.5664 188.173 93.55 188.078 93.5552C187.983 93.5605 187.89 93.5873 187.807 93.6336C187.724 93.6799 187.653 93.7446 187.598 93.8226C187.544 93.9007 187.508 93.9902 187.493 94.0842L186.768 99.0407C186.663 99.7343 186.261 100.084 185.562 100.091H185.259C185.171 100.092 185.084 100.074 185.004 100.038C184.924 100.003 184.852 99.9503 184.794 99.885C184.737 99.8197 184.694 99.7429 184.669 99.6598C184.644 99.5768 184.638 99.4894 184.651 99.4039L186.327 87.4985C186.425 86.818 186.817 86.4679 187.503 86.4483L187.826 86.4385C187.917 86.4353 188.007 86.4528 188.09 86.4896C188.173 86.5264 188.246 86.5816 188.306 86.6513C188.365 86.7209 188.408 86.8031 188.432 86.892C188.456 86.9808 188.46 87.074 188.444 87.1648C188.045 89.2063 187.849 90.2793 187.856 90.384Z" fill="black"/>
<path d="M196.647 90.502C197.764 85.0254 206.603 84.3678 206.456 90.1585C206.339 94.7126 205.79 100.376 199.665 100.081C194.255 99.8065 195.941 93.9372 196.647 90.502ZM204.491 90.9286C204.59 90.3038 204.437 89.6654 204.066 89.1537C203.695 88.6419 203.136 88.2988 202.512 88.1999L201.525 88.0433C201.216 87.9943 200.9 88.0067 200.596 88.0798C200.292 88.1529 200.005 88.2853 199.752 88.4694C199.499 88.6535 199.285 88.8857 199.122 89.1528C198.958 89.4198 198.849 89.7165 198.8 90.0258L197.935 95.4933C197.837 96.118 197.99 96.7565 198.361 97.2682C198.732 97.7799 199.291 98.123 199.915 98.222L200.902 98.3785C201.211 98.4275 201.527 98.4151 201.831 98.342C202.135 98.2689 202.422 98.1365 202.675 97.9524C202.928 97.7684 203.142 97.5362 203.305 97.2691C203.469 97.0021 203.578 96.7054 203.627 96.396L204.491 90.9286Z" fill="black"/>
<path d="M219.923 91.5922L216.179 97.1376C216.052 97.3247 215.876 97.4739 215.671 97.5694C215.466 97.6649 215.239 97.7031 215.014 97.6799C214.789 97.6568 214.575 97.5732 214.393 97.438C214.212 97.3028 214.07 97.121 213.984 96.9118L211.818 91.6413C211.57 91.0459 211.403 91.0655 211.318 91.7002L210.328 98.865C210.237 99.5128 209.878 99.9152 209.25 100.072C209.08 100.118 208.911 100.121 208.741 100.082C208.576 100.044 208.431 99.9463 208.335 99.8082C208.238 99.6701 208.198 99.5016 208.221 99.3361L209.966 87.1461C209.99 86.982 210.052 86.8262 210.148 86.6915C210.243 86.5567 210.369 86.4468 210.515 86.3707C211.285 85.9781 211.838 86.1744 212.171 86.9596C213.242 89.518 214.232 91.9946 215.14 94.3894C215.303 94.8213 215.516 94.8475 215.777 94.4679L221.148 86.5867C221.228 86.4724 221.33 86.3766 221.449 86.3055C221.567 86.2345 221.698 86.1898 221.834 86.1744C222.755 86.0697 223.147 86.5408 223.01 87.5878C222.493 91.5791 221.951 95.3742 221.383 98.9729C221.285 99.5684 220.942 99.9381 220.354 100.082C220.177 100.128 220.001 100.131 219.825 100.092C219.674 100.055 219.543 99.9626 219.456 99.8339C219.369 99.7052 219.333 99.5488 219.354 99.395L220.383 91.7689C220.481 91.0491 220.328 90.9902 219.923 91.5922Z" fill="black"/>
<path d="M245.382 99.1494C244.82 99.4962 244.212 99.7546 243.559 99.9248C236.817 101.701 238.737 93.6335 239.463 90.5025C240.697 85.124 249.145 83.9463 248.606 90.7185C248.43 92.9301 248.158 95.1024 247.793 97.2355C247.74 97.5496 247.809 97.8309 247.998 98.0796C248.149 98.2693 248.335 98.4198 248.557 98.5311C248.698 98.6044 248.811 98.7215 248.88 98.8649C248.949 99.0082 248.97 99.17 248.939 99.3261C248.854 99.7841 248.573 100.029 248.096 100.062C247.293 100.128 246.62 99.8561 246.078 99.2476C245.992 99.1533 245.876 99.092 245.749 99.0741C245.623 99.0562 245.493 99.0828 245.382 99.1494ZM243.892 98.0796C245.068 97.7917 245.744 97.049 245.921 95.8516L246.695 90.6105C246.878 89.3804 246.375 88.5854 245.186 88.2255C244.951 88.1535 244.712 88.1175 244.47 88.1175C242.85 88.0783 241.854 88.8537 241.481 90.4437C240.998 92.5048 240.756 94.5201 240.756 96.4896C240.756 97.7917 241.403 98.3871 242.697 98.2759C243.095 98.2432 243.494 98.1777 243.892 98.0796Z" fill="black"/>
<path d="M10.9871 88.3341C11.0132 88.1705 10.9446 88.0887 10.7813 88.0887H5.93025C5.70812 88.0887 5.58399 88.1967 5.55785 88.4126L4.10745 98.9341C4.01599 99.5688 3.65665 99.945 3.02945 100.063C2.82692 100.102 2.62439 100.095 2.42185 100.043C2.06905 99.9646 1.91879 99.7454 1.97105 99.3855L3.66645 87.2937C3.70191 87.0405 3.82758 86.8086 4.02028 86.6409C4.21298 86.4731 4.45974 86.3808 4.71505 86.3809L12.4767 86.3711C12.5825 86.3716 12.6869 86.3946 12.7832 86.4387C12.8794 86.4828 12.9651 86.5469 13.0347 86.6267C13.1042 86.7066 13.156 86.8004 13.1865 86.9019C13.217 87.0033 13.2256 87.1101 13.2117 87.2152L11.5849 98.9439C11.4999 99.5524 11.1602 99.9319 10.5657 100.082C10.3958 100.128 10.2292 100.138 10.0659 100.112C9.88345 100.083 9.71971 99.9832 9.60977 99.8346C9.49983 99.6859 9.45247 99.5001 9.47785 99.3168L10.9871 88.3341Z" fill="black"/>
<path d="M75.6176 106H72.2954L71.0312 105.185C70.7307 104.995 70.6196 104.727 70.698 104.38C70.7764 103.994 70.9986 103.746 71.3644 103.634C71.6192 103.562 71.8675 103.576 72.1092 103.674C75.6666 105.156 77.46 103.006 77.6364 99.63C77.656 99.2374 77.4894 99.1295 77.1366 99.3061C73.9026 100.994 69.9336 100.189 70.502 95.6452C70.8483 92.8709 71.2403 90.09 71.678 87.3026C71.7146 87.0791 71.8242 86.8744 71.9895 86.7213C72.1548 86.5682 72.3661 86.4757 72.5894 86.4585L72.9324 86.4389C73.0423 86.4321 73.1523 86.4498 73.2545 86.4907C73.3568 86.5316 73.4487 86.5947 73.5236 86.6754C73.5986 86.7561 73.6548 86.8524 73.6881 86.9575C73.7215 87.0626 73.7311 87.1737 73.7164 87.283L72.5894 95.4489C72.3216 97.3988 73.1709 98.3737 75.1374 98.3737C75.438 98.3737 75.7385 98.3345 76.039 98.256C77.2934 97.9223 78.0121 97.1109 78.195 95.8219L79.3808 87.4106C79.4658 86.8021 79.8153 86.4847 80.4294 86.4585C80.5536 86.452 80.6777 86.4487 80.8018 86.4487C80.8969 86.4507 80.9905 86.4727 81.0765 86.5133C81.1625 86.554 81.239 86.6123 81.301 86.6845C81.3629 86.7568 81.409 86.8413 81.4361 86.9326C81.4633 87.0239 81.4709 87.1199 81.4584 87.2143C80.8247 92.0301 80.1322 96.9015 79.3808 101.829C79.0868 103.72 77.8324 105.11 75.6176 106Z" fill="black"/>
<path d="M170.774 94.4476L169.549 94.4574C169.137 94.4639 168.801 94.6275 168.54 94.9481L164.551 99.8751C164.486 99.955 164.405 100.021 164.313 100.068C164.221 100.115 164.121 100.143 164.019 100.149C163.917 100.156 163.815 100.141 163.719 100.105C163.623 100.07 163.536 100.015 163.463 99.9439L163.071 99.5709C162.991 99.4944 162.942 99.3902 162.935 99.2792C162.927 99.1682 162.962 99.0586 163.032 98.9722L166.286 94.85C166.619 94.4377 166.531 94.1629 166.021 94.0255C165.224 93.8161 164.727 93.3058 164.531 92.4944C163.747 89.2653 165.462 86.5074 168.892 86.4092C170.467 86.3634 172.002 86.3569 173.498 86.3896C173.621 86.3926 173.742 86.4215 173.852 86.4744C173.963 86.5273 174.062 86.603 174.141 86.6965C174.221 86.7901 174.28 86.8994 174.314 87.0173C174.349 87.1353 174.358 87.2591 174.341 87.3809L172.734 99.1194C172.7 99.3512 172.59 99.5656 172.422 99.7303C172.254 99.895 172.037 100.001 171.803 100.032C171.45 100.078 171.127 99.9798 170.833 99.7377C170.773 99.6899 170.727 99.6273 170.699 99.5566C170.672 99.4859 170.664 99.4095 170.676 99.3353L171.235 94.9677C171.28 94.6144 171.127 94.441 170.774 94.4476ZM171.842 92.6024L171.999 88.4409C171.999 88.3723 171.973 88.3063 171.925 88.2569C171.878 88.2075 171.813 88.1784 171.744 88.1759L169.294 88.0777C168.924 88.0639 168.556 88.1053 168.21 88.1995C167.864 88.2937 167.548 88.4389 167.279 88.6268C167.011 88.8146 166.795 89.0414 166.645 89.2942C166.494 89.5469 166.412 89.8206 166.403 90.0996L166.384 90.5511C166.364 91.1125 166.641 91.6614 167.154 92.0773C167.667 92.4932 168.373 92.7421 169.118 92.7692L171.568 92.8576C171.603 92.8589 171.637 92.8533 171.67 92.8412C171.702 92.8291 171.732 92.8106 171.758 92.7869C171.783 92.7632 171.804 92.7347 171.818 92.7031C171.833 92.6714 171.841 92.6372 171.842 92.6024Z" fill="black"/>
<path d="M228.898 88.4028L227.438 98.9341C227.34 99.6538 226.928 100.043 226.203 100.102C226.118 100.109 226.03 100.109 225.938 100.102C225.461 100.063 225.259 99.8043 225.331 99.3267L226.997 87.5587C227.044 87.2283 227.209 86.9262 227.461 86.708C227.713 86.4897 228.035 86.3701 228.369 86.3711H235.454C236.284 86.3711 236.64 86.7866 236.522 87.6176L234.925 98.9439C234.84 99.5459 234.503 99.9221 233.915 100.073C233.706 100.125 233.497 100.128 233.288 100.082C233.141 100.05 233.011 99.9621 232.924 99.8369C232.837 99.7117 232.799 99.5578 232.818 99.4052L234.317 88.4028C234.323 88.3622 234.32 88.321 234.308 88.2818C234.296 88.2426 234.276 88.2063 234.249 88.1756C234.222 88.1449 234.189 88.1203 234.152 88.1036C234.114 88.0869 234.074 88.0785 234.033 88.0789L229.251 88.0887C229.041 88.0887 228.924 88.1934 228.898 88.4028Z" fill="black"/>
<path d="M260.112 94.7227C260.183 94.2254 259.968 93.9767 259.465 93.9767H255.408C254.826 93.9767 254.49 94.2646 254.398 94.8404L253.771 98.943C253.686 99.5254 253.359 99.8951 252.791 100.052C252.51 100.131 252.236 100.121 251.968 100.023C251.871 99.986 251.789 99.9175 251.736 99.8285C251.682 99.7394 251.66 99.6349 251.674 99.5319L253.389 87.283C253.416 87.1073 253.489 86.9419 253.601 86.8039C253.713 86.6659 253.859 86.5603 254.026 86.4978C254.365 86.367 254.682 86.3604 254.976 86.4782C255.082 86.5219 255.172 86.5952 255.236 86.6893C255.301 86.7834 255.336 86.8942 255.339 87.0082C255.365 88.3954 255.192 89.7694 254.82 91.1304C254.656 91.7259 254.885 92.0236 255.506 92.0236L259.573 92.0138C260.154 92.0138 260.49 91.7259 260.582 91.1501L261.18 87.2438C261.216 86.999 261.344 86.777 261.539 86.6223C261.733 86.4676 261.979 86.3916 262.228 86.4095L262.689 86.4488C262.769 86.4547 262.847 86.477 262.918 86.5144C262.989 86.5517 263.052 86.6032 263.103 86.6657C263.153 86.7282 263.19 86.8005 263.212 86.8779C263.233 86.9554 263.239 87.0365 263.228 87.1162L261.523 99.1099C261.501 99.2612 261.447 99.4068 261.365 99.537C261.282 99.6673 261.172 99.7793 261.043 99.8656C260.683 100.101 260.327 100.183 259.974 100.111C259.805 100.073 259.656 99.9726 259.558 99.8305C259.459 99.6884 259.419 99.515 259.445 99.3454L260.112 94.7227Z" fill="black"/>
<path d="M270.225 98.305C270.48 98.305 270.731 98.3017 270.98 98.2951C272.371 98.2886 273.162 97.595 273.351 96.2144L274.606 87.3222C274.641 87.0697 274.765 86.838 274.955 86.6688C275.146 86.4997 275.39 86.4042 275.645 86.3996L276.056 86.3898C276.153 86.3879 276.249 86.4078 276.337 86.448C276.425 86.4882 276.503 86.5477 276.565 86.6221C276.627 86.6965 276.672 86.784 276.696 86.8779C276.72 86.9719 276.722 87.0701 276.703 87.1651C275.867 91.6276 275.416 95.7531 275.351 99.5416C275.344 100.131 275.099 100.258 274.616 99.9244C273.747 99.329 272.809 99.2439 271.803 99.6692C268.775 100.945 265.649 99.6398 266.06 95.8022C266.4 92.7138 266.798 89.8642 267.256 87.2535C267.294 87.0291 267.406 86.8242 267.573 86.6713C267.74 86.5183 267.952 86.4262 268.177 86.4094C268.412 86.3963 268.634 86.4487 268.843 86.5664C268.98 86.6447 269.09 86.763 269.16 86.9063C269.23 87.0495 269.256 87.2114 269.235 87.3713L268.079 95.8709C267.857 97.5067 268.572 98.3181 270.225 98.305Z" fill="black"/>
<path d="M281.543 94.1241C279.89 93.3978 279.348 91.9387 279.916 89.7467C280.484 87.5351 281.909 86.4195 284.189 86.3999L288.373 86.3606C289.393 86.3475 289.834 86.8481 289.696 87.8623L288.119 99.1984C288.034 99.8069 287.687 100.092 287.08 100.052L286.531 100.013C286.465 100.009 286.401 99.9924 286.342 99.9633C286.283 99.9342 286.231 99.8935 286.189 99.8438C286.146 99.7941 286.115 99.7364 286.096 99.6743C286.078 99.6123 286.072 99.5471 286.08 99.483L286.658 94.9486C286.685 94.713 286.583 94.5625 286.355 94.4971C285.231 94.183 284.333 94.4513 283.66 95.3019C282.444 96.8526 281.216 98.3543 279.975 99.8069C279.897 99.9004 279.8 99.9762 279.69 100.029C279.581 100.082 279.461 100.111 279.34 100.114C279.218 100.116 279.097 100.093 278.985 100.045C278.873 99.9975 278.773 99.9262 278.691 99.8363L278.446 99.5615C278.27 99.3718 278.263 99.1755 278.426 98.9726L281.719 94.8602C281.974 94.5396 281.915 94.2942 281.543 94.1241ZM287.256 92.6028L287.413 88.461C287.414 88.4262 287.409 88.3914 287.397 88.3588C287.385 88.3261 287.366 88.2962 287.342 88.2707C287.319 88.2451 287.29 88.2245 287.259 88.21C287.227 88.1955 287.193 88.1874 287.158 88.1862L284.63 88.088C283.906 88.0606 283.203 88.2601 282.676 88.6429C282.148 89.0257 281.839 89.5604 281.817 90.1295L281.798 90.5025C281.786 90.7852 281.846 91.0681 281.973 91.3348C282.1 91.6015 282.293 91.8467 282.54 92.0564C282.786 92.2662 283.083 92.4363 283.411 92.557C283.739 92.6777 284.094 92.7467 284.453 92.7599L286.982 92.858C287.017 92.8593 287.051 92.8538 287.084 92.8416C287.116 92.8295 287.146 92.8111 287.172 92.7874C287.197 92.7637 287.218 92.7352 287.232 92.7035C287.247 92.6718 287.255 92.6376 287.256 92.6028Z" fill="black"/>
</g>
<defs>
<clipPath id="clip0_70_182">
<rect width="294" height="106" fill="white"/>
</clipPath>
</defs>
</svg>
