<svg width="50" height="52" viewBox="0 0 50 52" fill="none" xmlns="http://www.w3.org/2000/svg">
<path d="M42.6148 2.65625C45.8023 0.78125 49.8336 3.5 49.2711 7.25L43.7398 43.5312C43.4586 44.9375 42.7086 46.0625 41.4898 46.8125C40.7398 47.1875 39.9898 47.375 39.2398 47.375C38.6773 47.375 38.1148 47.2812 37.5523 47L27.0523 42.6875L22.9273 48.2188C20.3961 51.6875 14.8648 49.9062 14.8648 45.5V37.625L4.08359 33.2188C0.614843 31.8125 0.333593 27.0312 3.61484 25.1562L42.6148 2.65625ZM19.3648 45.5L22.7398 40.9062L19.3648 39.5V45.5ZM39.2398 42.875L44.8648 6.5L5.86484 29L15.8961 33.2188L35.7711 15.9688C37.0836 14.75 38.9586 16.4375 38.0211 17.9375L24.8023 36.875L39.2398 42.875Z" fill="black"/>
</svg>
