<svg width="68" height="68" viewBox="0 0 68 68" fill="none" xmlns="http://www.w3.org/2000/svg">
<path d="M34.1069 9.32251C20.1099 9.32251 8.71881 20.2941 8.71387 33.7778C8.71058 38.0898 9.88194 42.2981 12.1029 46.0047L8.5 58.6773L21.9624 55.2768C25.7071 57.2357 29.8709 58.2574 34.0971 58.2545H34.1069C48.104 58.2545 59.4951 47.2813 59.5 33.7976C59.5033 27.2663 56.8644 21.1183 52.0688 16.4971C47.2748 11.8742 40.8998 9.32415 34.1069 9.32251ZM34.1069 54.1235H34.0987C30.3115 54.1235 26.5968 53.143 23.3558 51.2906L22.5826 50.8497L14.597 52.8666L16.7291 45.3647L16.2273 44.5964C14.1197 41.382 12.9978 37.6216 12.9995 33.7778C13.0045 22.5693 22.474 13.4535 34.1152 13.4535C39.7515 13.4552 45.0505 15.5725 49.0368 19.4139C53.023 23.2554 55.216 28.3636 55.2127 33.7959C55.2078 45.0044 45.7399 54.1235 34.1053 54.1235H34.1069ZM45.6839 38.8976C45.0489 38.5932 41.9297 37.1142 41.3473 36.9086C40.7665 36.7062 40.3437 36.6009 39.9209 37.2129C39.4998 37.8249 38.2824 39.2019 37.9138 39.6083C37.542 40.0163 37.1719 40.0656 36.5368 39.7613C35.9018 39.4553 33.8569 38.8104 31.4352 36.7276C29.5482 35.1088 28.2748 33.1082 27.9047 32.4946C27.5345 31.8843 27.8652 31.5536 28.1827 31.2492C28.4673 30.9778 28.8177 30.5369 29.1336 30.1799C29.4495 29.8229 29.5548 29.5679 29.7686 29.1599C29.9792 28.7535 29.8739 28.3949 29.7144 28.0905C29.5548 27.7829 28.288 24.7755 27.7566 23.5532C27.2433 22.3621 26.7202 22.5216 26.3303 22.5019C25.9601 22.4854 25.5389 22.4805 25.1128 22.4805C24.6933 22.4805 24.004 22.6335 23.4216 23.2455C22.8409 23.8575 21.2006 25.3349 21.2006 28.3422C21.2006 31.3512 23.4743 34.2566 23.7918 34.6646C24.1093 35.0709 28.2666 41.2452 34.6317 43.8939C36.1453 44.5207 37.3265 44.8975 38.2494 45.1804C39.7696 45.646 41.1532 45.5786 42.2455 45.4223C43.463 45.2463 45.9998 43.9449 46.5263 42.5186C47.056 41.0922 47.056 39.8682 46.8981 39.6132C46.7434 39.3582 46.319 39.2052 45.6839 38.8976Z" fill="black"/>
</svg>
